<svg width="100" height="20" viewBox="0 0 100 20" fill="none" xmlns="http://www.w3.org/2000/svg">
<path fill-rule="evenodd" clip-rule="evenodd" d="M93.2465 7.71702C89.6439 6.94501 88.3962 6.59945 88.3962 5.40835C88.3962 4.35695 89.7132 3.87169 91.7918 3.87169C93.7319 3.87169 96.0882 4.70987 97.4737 5.54805L98.8599 1.84241C96.7806 0.938061 94.2173 0.0925293 90.891 0.0925293C86.5253 0.0925293 83.7536 2.68059 83.7536 5.82744C83.7536 8.97429 85.9714 10.3713 90.4755 11.3491C93.9396 12.1211 94.8405 12.5402 94.8405 13.5916C94.8405 14.6357 93.455 15.0548 91.5841 15.0548C89.1585 15.0548 86.803 14.2166 84.6544 13.3049L83.3381 16.8708C85.9714 18.1354 88.6739 19.1133 91.9303 19.1133C97.3352 19.1133 99.5523 16.5252 99.5523 13.4519C99.6915 10.7903 97.8199 8.76107 93.2465 7.71702ZM77.587 10.8639V0.658668H81.9519V10.8639C81.9519 17.3634 78.2101 19.253 73.4983 19.253C68.8557 19.253 65.0446 17.3634 65.0446 10.8639V0.658668H69.5488V10.8639C69.5488 13.9372 71.3504 15.268 73.5675 15.268C75.7853 15.268 77.587 13.9372 77.587 10.8639ZM61.3721 9.53307C62.5499 8.69489 62.966 7.3641 62.966 5.82744C62.966 2.95998 60.6097 0.72484 57.6995 0.72484H47.1673V18.8339H58.115C61.1644 18.8339 63.7284 16.4517 63.7284 13.5181C63.7976 11.6285 62.6191 10.2316 61.3721 9.53307ZM57.6995 4.57017H51.5322V7.64349H57.6995C58.5311 7.64349 59.2935 6.94501 59.2935 6.10683C59.2935 5.26865 58.5311 4.57017 57.6995 4.57017ZM51.5322 14.9886H57.838C58.8773 14.9886 59.7089 14.1504 59.7089 13.1652C59.7089 12.1873 58.8773 11.4227 57.838 11.4227H51.5322V14.9886ZM0.117188 18.8339L9.19399 0.72484L12.7281 0.658668L22.1525 18.7604H16.7475L10.9956 6.94501L8.70932 11.9079H11.1348L13.075 15.8929H6.90766L5.52144 18.8339H0.117188ZM45.5733 6.73914C45.5733 3.4526 43.3555 0.798364 38.7129 0.798364H29.4276V18.9001H33.7241V4.57017H38.9906C40.5838 4.57017 41.2077 5.54805 41.2077 6.73914C41.2077 7.92289 40.5145 8.83459 38.9906 8.83459H35.318L40.9307 18.9001H45.3656L41.5546 12.327C44.2563 11.4227 45.5733 9.3272 45.5733 6.73914ZM27.4875 18.8339H23.0526V0.72484H27.4875V18.8339Z" fill="black"/>
</svg>
