<svg width="136" height="11" viewBox="0 0 136 11" fill="none" xmlns="http://www.w3.org/2000/svg">
<path d="M49.2842 3.5293H50.2302L51.025 9.67621H51.0503L52.6906 3.5293H53.6996L55.3399 9.67621H55.3652L56.16 3.5293H57.1068L55.8324 10.6971H54.8481L53.1955 4.66367H53.1702L51.5298 10.6971H50.5455L49.2842 3.5293Z" fill="black"/>
<path d="M90.3906 0.77832H91.4256L92.6493 9.4634H92.6746L94.9962 0.77832H96.2077L98.5415 9.4634H98.5669L99.8795 0.77832H100.851L99.0594 10.697H98.0367L95.6146 1.81344H95.5893L93.1794 10.697H92.1322L90.3906 0.77832Z" fill="black"/>
<path fill-rule="evenodd" clip-rule="evenodd" d="M36.1867 10.7466H32.5654V0.813721H36.0225C37.9406 0.813721 39.0891 1.76376 39.0891 3.50078C39.0891 4.79822 38.5206 5.74826 37.2716 5.98223V6.01059C38.496 6.30836 38.9878 7.1946 38.9878 8.22263C38.9878 9.69732 38.1423 10.7466 36.1867 10.7466ZM33.4615 1.57943H35.8338C37.4104 1.57943 38.1799 2.18206 38.1799 3.51496C38.1799 4.84785 37.4864 5.54266 35.909 5.54266H33.4615V1.57943ZM33.4615 6.29418H35.7325C37.2969 6.29418 38.1554 7.01026 38.1554 8.15882C38.1554 9.47753 37.3099 9.99509 35.8837 9.99509H33.4615V6.29418Z" fill="black"/>
<path d="M102.832 3.5647H103.727V10.7396H102.832V3.5647Z" fill="black"/>
<path d="M117.405 3.5647H118.301V10.7396H117.405V3.5647Z" fill="black"/>
<path d="M121.076 3.56474H121.972V4.79837H121.998C122.325 3.93341 123.31 3.35913 124.344 3.35913C126.401 3.35913 126.905 4.41552 126.905 6.12418V10.7397H126.009V6.25888C126.009 5.02525 125.719 4.0823 124.269 4.0823C122.843 4.0823 121.998 5.14578 121.972 6.54248V10.7255H121.076V3.56474Z" fill="black"/>
<path d="M133.756 5.69167C134.135 4.67782 133.025 4.12481 132.003 4.12481C131.208 4.12481 130.262 4.42967 130.262 5.35844C130.262 6.13124 131.17 6.41483 131.789 6.56372L132.987 6.82604C134.009 6.97493 135.081 7.56339 135.081 8.8112C135.081 10.3639 133.504 10.9736 132.141 10.9736C130.438 10.9736 128.924 10.0945 129.29 8.44253H130.186C129.782 9.47765 130.994 10.2292 132.192 10.2292C133.025 10.2292 134.198 9.87468 134.198 8.87501C134.198 8.03132 133.404 7.7619 132.596 7.56339L131.448 7.31524C130.287 7.01038 129.404 6.62753 129.404 5.39389C129.404 3.93338 130.867 3.38037 132.167 3.38037C133.631 3.38037 135.119 4.28078 134.69 5.69167H133.756Z" fill="black"/>
<path d="M76.625 5.66333C77.004 4.64948 75.8931 4.09647 74.8712 4.09647C74.0763 4.09647 73.1426 4.40842 73.1426 5.3301C73.1426 6.10999 74.051 6.39358 74.6694 6.54247L75.8685 6.7977C76.8904 6.94659 77.963 7.54214 77.963 8.78995C77.963 10.3426 76.3856 10.9453 75.023 10.9453C73.3198 10.9453 71.8053 10.0732 72.1713 8.41419H73.0674C72.6631 9.4564 73.8745 10.2079 75.0737 10.2079C75.9061 10.2079 77.0792 9.84634 77.0792 8.84667C77.0792 8.01007 76.2844 7.74065 75.4772 7.54214L74.3287 7.29399C73.1679 6.98204 72.2848 6.59919 72.2848 5.37973C72.2848 3.92631 73.7487 3.36621 75.0484 3.36621C76.5115 3.36621 78.0006 4.26662 77.5717 5.67751H76.625" fill="black"/>
<path fill-rule="evenodd" clip-rule="evenodd" d="M41.0449 7.14507C41.0449 5.11028 42.1298 3.39453 44.3509 3.39453C46.5712 3.39453 47.6561 5.11737 47.6561 7.14507C47.6561 9.17986 46.5712 10.8956 44.3509 10.8956C42.1298 10.8956 41.0449 9.17986 41.0449 7.14507ZM46.773 7.15925C46.773 5.64911 46.0541 4.13188 44.3509 4.13188C42.6469 4.13188 41.928 5.64202 41.928 7.15925C41.928 8.6623 42.6469 10.1795 44.3509 10.1795C46.0541 10.1795 46.773 8.67648 46.773 7.15925Z" fill="black"/>
<path d="M110.214 0.813721H111.109V6.88973L114.516 3.56459H115.677L112.951 6.22328L115.854 10.7395H114.819L112.333 6.79756L111.109 8.00993V10.7395H110.214V0.813721Z" fill="black"/>
<path d="M70.8592 4.64932C70.6068 4.49334 70.3291 4.3799 69.9002 4.3799C69.0171 4.3799 68.5246 5.18106 68.5246 6.5494V10.7466H67.6162V3.59293H68.5246V4.47916C68.8153 3.91197 69.4207 3.47949 70.102 3.47949C70.5685 3.47949 70.8715 3.59293 71.0986 3.69219L70.8592 4.64932Z" fill="black"/>
<path d="M106.529 0.813721H107.425V10.7395H106.529V0.813721Z" fill="black"/>
<path fill-rule="evenodd" clip-rule="evenodd" d="M83.0993 6.33225L83.0993 6.33225C82.5109 6.66445 81.2949 7.35093 81.2949 8.69773V8.71191C81.2949 9.45634 81.8374 10.8601 83.8183 10.8601C85.5223 10.8601 86.1782 9.64777 86.1782 9.64777L87.1119 10.7254H88.1845C87.9191 10.4277 86.6447 8.97423 86.6447 8.97423C86.6447 8.97423 87.2125 7.9462 87.2125 7.02452H86.4307C86.4307 7.5988 86.1153 8.37869 86.1153 8.37869L84.4497 6.39352C84.4497 6.39352 86.0647 5.64909 86.0647 4.29493C86.0647 3.34488 85.2315 2.69971 84.1213 2.69971C83.0618 2.69971 82.3169 3.35906 82.3169 4.30911C82.3281 5.00958 82.699 5.48639 83.0934 5.99338C83.1541 6.07138 83.2153 6.1501 83.2759 6.23046C83.2274 6.25994 83.1676 6.29371 83.0993 6.33225ZM85.2445 4.26657C85.2445 5.08358 84.5464 5.50208 84.0545 5.79691L83.9702 5.84761C83.9702 5.84761 83.1623 4.99682 83.1623 4.26657C83.1623 3.62848 83.7048 3.34488 84.2096 3.34488C84.6768 3.3307 85.2445 3.6143 85.2445 4.26657ZM82.191 8.6481C82.191 9.59814 83.1117 10.1228 83.8689 10.1228C85.0504 10.1228 85.6061 9.27331 85.7072 9.11874C85.7173 9.10327 85.7229 9.09476 85.724 9.09476L83.7431 6.77638L83.7301 6.7622C82.8976 7.23013 82.191 7.72642 82.191 8.6481Z" fill="black"/>
<path fill-rule="evenodd" clip-rule="evenodd" d="M62.1023 10.1795C63.3644 10.1795 63.9444 9.47761 64.2344 8.44249L65.0799 8.60556C64.6763 10.059 63.8439 10.9098 62.1023 10.9098C59.7937 10.9098 58.9482 9.17984 58.9482 7.15923C58.9482 5.29459 59.7937 3.40869 62.1023 3.40869C64.4369 3.40869 65.2441 5.39385 65.1681 7.39319H59.8313C59.8436 8.6481 60.3991 10.1795 62.1023 10.1795ZM64.285 6.66294C64.2474 5.3584 63.5408 4.13186 62.1023 4.13186C60.6515 4.13186 59.9702 5.36549 59.8313 6.66294H64.285Z" fill="black"/>
<path d="M102.832 0.813721H103.727V2.21751H102.832V0.813721Z" fill="black"/>
<path d="M117.405 0.813721H118.301V2.21751H117.405V0.813721Z" fill="black"/>
<path fill-rule="evenodd" clip-rule="evenodd" d="M8.08797 8.22965C8.08797 6.25867 6.42235 5.92544 6.42235 5.92544V5.8829C6.42235 5.8829 8.20152 5.8829 8.20152 3.51489C8.20152 2.64993 7.89848 1.98348 7.4573 1.551C6.99009 1.09725 6.25817 0.863281 5.27456 0.863281H0.958984V10.7607H5.31217C7.05301 10.7607 8.08797 9.81069 8.08797 8.22965ZM3.39414 5.06048H4.6938C5.00913 5.06048 5.29915 4.94704 5.51396 4.74144C5.76637 4.49329 5.84231 4.13171 5.84231 3.71341C5.84231 3.35891 5.79168 3.04696 5.56458 2.82717C5.34978 2.61448 5.03445 2.49395 4.6815 2.49395H3.25527V5.06048H3.39414ZM3.40715 9.07334H4.61786C4.93319 9.07334 5.21092 8.9599 5.42572 8.74721C5.67813 8.50615 5.77866 8.14457 5.77866 7.74045C5.77866 7.37886 5.69043 7.08109 5.47635 6.8613C5.26154 6.64861 4.94621 6.52808 4.60556 6.52808H3.26829V9.07334H3.40715Z" fill="black"/>
<path fill-rule="evenodd" clip-rule="evenodd" d="M14.1685 10.7396H16.4901L14.7999 8.81113C15.2917 8.29357 15.6201 7.59876 15.683 6.89687H14.0427C14.0043 7.17337 13.9038 7.44278 13.7527 7.66257L12.9195 6.69126C13.7143 6.29423 14.2951 5.66323 14.2951 4.74864C14.2951 3.50082 13.2225 2.72803 12.0241 2.72803C10.8633 2.72803 9.72709 3.49373 9.72709 4.71319C9.72709 5.30874 10.0432 5.79085 10.4337 6.20915C9.46239 6.64163 8.73047 7.3648 8.73047 8.49208C8.73047 9.95969 9.86596 10.8885 11.2922 10.8885C12.1876 10.8885 12.8942 10.6261 13.6008 10.0589L14.1685 10.7396ZM12.8059 8.89621C12.44 9.22943 11.9605 9.57683 11.5193 9.57683C10.9009 9.57683 10.3585 9.15853 10.3585 8.49208C10.3585 7.9249 10.8879 7.46405 11.3674 7.24427L12.8059 8.89621ZM11.8108 5.53508C11.8695 5.60226 11.9288 5.67023 11.9858 5.74122C12.44 5.46471 12.8435 5.16694 12.8435 4.62811C12.8435 4.20981 12.5159 3.9333 12.0617 3.9333C11.6704 3.9333 11.3421 4.2169 11.3421 4.59975C11.3421 4.99861 11.5705 5.26009 11.8108 5.53508Z" fill="black"/>
<path d="M23.292 8.12334C23.292 8.13043 23.2797 8.14461 23.2667 8.14461C23.2544 8.14461 23.2414 8.13043 23.2414 8.12334L22.1312 0.834961H19.8219L18.7247 8.12334C18.7247 8.13043 18.7117 8.14461 18.6994 8.14461C18.6864 8.14461 18.6741 8.13043 18.6741 8.12334L18.0934 0.834961H15.6582L17.2103 10.7395H20.0743C20.0873 10.6261 20.9451 3.8836 20.9451 3.8836C20.9451 3.87651 20.9581 3.86233 20.9704 3.86233C20.9827 3.86233 20.9957 3.87651 20.9957 3.8836L22.0683 10.7395H24.9952L26.3072 0.834961H23.7838L23.292 8.12334Z" fill="black"/>
</svg>
