<svg width="118" height="19" viewBox="0 0 118 19" fill="none" xmlns="http://www.w3.org/2000/svg">
<path d="M17.1836 16.3329L22.6896 0.82251H26.6731L21.1671 16.3329H17.1836Z" fill="black"/>
<path d="M100.533 16.3329L104.868 4.08748H98.7564H93.4847H86.1239L85.0304 7.15612H95.0857L94.0902 9.98479H84.0154L82.9218 13.068H95.5348L94.3829 16.3329H77.7871L83.2931 0.82251H94.6366H99.9083H117.735L116.583 4.08748H109.027L104.673 16.3329H100.533Z" fill="black"/>
<path d="M48.695 16.333L50.6478 10.7993L45.2586 4.08757H39.4794L35.1254 16.333H30.9667L35.3208 4.08757H27.7646L28.9166 0.822596L48.7339 0.800781L53.6156 7.29437L63.3971 0.800781H70.0355L54.4353 11.3956L52.6785 16.333H48.695Z" fill="black"/>
<path d="M69.1387 14.5587C68.4553 14.7987 67.0691 14.9223 66.5219 14.9005C65.1746 14.8569 63.8864 14.5442 62.7734 13.9043L60.0204 15.7731L60.001 15.7949C60.0204 15.8167 60.0399 15.8167 60.0594 15.8385C61.2308 16.7475 62.5975 17.4092 64.0818 17.7437C64.1402 17.7655 64.218 17.7873 64.2772 17.7873C64.5698 17.8455 64.8625 17.9037 65.1552 17.9473C65.3116 17.9691 65.4486 17.9837 65.6043 17.9837C65.6828 17.9837 65.7607 18.0055 65.8386 18.0055C66.0728 18.0273 66.2877 18.0273 66.5219 18.0273C67.3617 18.0273 68.1619 17.9255 68.9433 17.7437C69.9583 17.511 70.9149 17.1329 71.7936 16.6093C72.5159 16.1948 73.1993 15.6931 73.8048 15.1405C73.8243 15.1405 73.8243 15.1186 73.8243 15.1186C74.5077 14.4787 75.1132 13.7443 75.6207 12.9444C75.6207 12.9444 75.6207 12.9444 75.6207 12.9299C76.0114 12.3118 76.343 11.6501 76.5968 10.9738C77.0264 10.043 77.3587 9.20679 77.3587 9.20679L72.6334 12.21C72.6334 12.2318 71.5593 13.7443 69.1387 14.5587Z" fill="black"/>
<path d="M80.9691 0.82251H73.1009L68.4736 4.08748H76.1076L73.0619 11.2573L77.8262 8.21051L80.9691 0.82251Z" fill="black"/>
<path d="M14.8789 16.333L16.3048 12.37C15.5039 12.7263 14.6057 13.0244 13.6491 13.2062C9.29511 14.1006 5.37071 12.7699 4.86322 10.203C4.35573 7.62885 7.47925 4.822 11.8138 3.92758C14.6843 3.33131 17.3587 3.70943 18.9987 4.78564L20.346 0.960748C17.4957 0.0881498 14.4695 0.00816163 11.111 0.524449C3.9261 1.6152 -0.0574087 6.67627 0.664899 11.0538C1.36846 15.3368 5.4291 17.9691 14.2547 16.4494C14.4695 16.4348 14.6641 16.3694 14.8789 16.333Z" fill="black"/>
</svg>
