<svg width="83" height="29" viewBox="0 0 83 29" fill="none" xmlns="http://www.w3.org/2000/svg">
<path fill-rule="evenodd" clip-rule="evenodd" d="M62.2101 4.41864C62.2542 4.44752 62.2886 4.47166 62.3174 4.49185C62.3764 4.53315 62.4116 4.55787 62.4569 4.57263C62.8101 4.77163 63.1641 4.97134 63.5186 5.17138L63.5204 5.17243L63.5209 5.17272C65.1258 6.07831 66.7425 6.9906 68.3597 7.87339C68.5398 7.98342 68.8763 7.96144 69.0786 7.85141C70.468 7.09104 71.8459 6.30785 73.2205 5.5265L73.2207 5.52638C73.7555 5.22238 74.2899 4.91866 74.8242 4.61666C74.8868 4.58595 74.9493 4.53386 75.0197 4.47528L75.0197 4.47522L75.02 4.47498C75.0504 4.44966 75.0823 4.42313 75.1162 4.39659C73.0066 3.2086 70.9421 2.06461 68.8777 0.920639L68.8763 0.919866C68.7643 0.85386 68.562 0.85386 68.4501 0.919866C67.3543 1.53858 66.2587 2.15108 65.1565 2.76725C64.181 3.31257 63.2005 3.86075 62.2101 4.41864ZM69.5368 15.7573C69.4066 15.8213 69.2726 15.8873 69.0334 16.0152C69.0334 15.3685 69.0396 14.7299 69.0457 14.0969C69.0598 12.6407 69.0737 11.2143 69.0112 9.78779C68.9882 8.97366 69.258 8.55558 69.9762 8.18144C71.3512 7.45406 72.6973 6.68377 74.0378 5.91668L74.041 5.91487L74.043 5.91369L74.0446 5.91283L74.0466 5.91164C74.3658 5.72899 74.6847 5.54651 75.0036 5.36485C75.0825 5.32066 75.1613 5.28201 75.2459 5.24057C75.3298 5.19944 75.4194 5.15556 75.5202 5.10076C75.5202 5.23116 75.5267 5.33602 75.5326 5.43255V5.43267V5.43279V5.43292V5.43307L75.5327 5.43345C75.5377 5.51574 75.5424 5.59201 75.5424 5.67291C75.5424 6.3624 75.54 7.05189 75.5375 7.74138C75.5325 9.12035 75.5276 10.4993 75.5424 11.8783C75.5424 12.2524 75.4305 12.4724 75.094 12.6705C73.2482 13.6732 71.425 14.6974 69.6013 15.7219L69.5493 15.7511L69.5368 15.7573ZM30.988 21.6924C30.8263 21.3501 30.6677 21.0204 30.5124 20.6973L30.5124 20.6972L30.512 20.6964C30.2581 20.1685 30.0129 19.6584 29.7762 19.1399C29.4583 18.4716 29.1404 17.804 28.8227 17.1368L28.8224 17.1362C27.435 14.2227 26.0507 11.3157 24.6806 8.37953C24.4363 7.86013 24.0437 7.88476 23.6379 7.91021L23.6378 7.91021L23.6378 7.91021C23.5966 7.91279 23.5553 7.91539 23.514 7.91742C23.1198 7.91742 23.0715 8.1886 23.0201 8.47806C23.0129 8.51842 23.0056 8.55914 22.9974 8.59953C22.5529 11.0569 22.1085 13.5076 21.664 15.9589L21.6636 15.9608C21.3002 17.9649 20.9367 19.9695 20.573 21.9785C20.4161 22.8682 20.2538 23.7524 20.0914 24.6366L20.0913 24.6372L20.0911 24.6378L20.091 24.6385L20.0909 24.6391L20.0908 24.6398L20.0907 24.6404L20.0906 24.641C19.9279 25.5268 19.7652 26.4125 19.6081 27.3037C19.4959 27.9198 19.6755 28.1399 20.3262 28.1399H22.6386C23.0871 28.1399 23.2664 27.9418 23.3339 27.5237C23.5131 26.3716 23.6922 25.2249 23.8712 24.0783L23.8725 24.0702L23.8728 24.0687C24.0523 22.919 24.2318 21.7694 24.4115 20.6142C24.4964 20.0518 24.5865 19.4845 24.6791 18.9006L24.6792 18.9004L24.6793 18.8997C24.7824 18.2501 24.8887 17.58 24.9949 16.8734C25.152 17.1595 25.2194 17.3135 25.2869 17.4675C26.8804 20.9003 28.4517 24.355 30.023 27.8098C30.2024 28.2279 30.4047 28.448 30.9206 28.448C31.4594 28.448 31.684 28.2279 31.8633 27.7878C32.6853 25.9416 33.5202 24.1083 34.3581 22.2682L34.3588 22.2667C34.6193 21.6947 34.8801 21.1221 35.1408 20.5482C35.4894 19.7927 35.8383 19.0279 36.1996 18.236L36.2009 18.2332C36.3969 17.8036 36.5965 17.3659 36.8018 16.9174L36.818 16.9655C36.8725 17.1269 36.8934 17.189 36.9137 17.2694C37.0931 18.4357 37.2732 19.58 37.4748 20.7462C37.5661 21.3219 37.6559 21.8976 37.7457 22.4733C38.0095 24.1641 38.2734 25.8549 38.5747 27.5458C38.6199 27.7658 38.9342 28.0959 39.1358 28.1178C39.7765 28.165 40.4289 28.156 41.0847 28.1471H41.0848H41.0848H41.0849H41.0849H41.085H41.085H41.0851C41.3478 28.1435 41.6111 28.1399 41.8744 28.1399C42.2109 28.1399 42.368 27.9418 42.368 27.6338C42.368 27.456 42.3316 27.2959 42.292 27.1218L42.2784 27.0617C41.5372 22.9688 40.7968 18.8538 40.0786 14.7609L40.0617 14.664C39.7079 12.6278 39.354 10.5917 38.9564 8.55558C38.9112 8.33551 38.777 8.04943 38.6199 7.96145C38.1033 7.69735 37.52 7.96145 37.2732 8.4895C36.7078 9.67837 36.1461 10.8672 35.5852 12.0546L35.58 12.0655L35.5799 12.0658C34.7618 13.7977 33.9451 15.5264 33.1204 17.2475C32.4244 18.6998 31.7285 20.1521 30.988 21.6924ZM0.619141 18.1937V27.3477C0.619141 28.0079 0.77627 28.1619 1.42717 28.1619C2.20612 28.1619 2.98257 28.1643 3.75818 28.1668H3.7584H3.75861H3.75883H3.75905H3.75926H3.75948H3.75969C5.30793 28.1716 6.85285 28.1765 8.40773 28.1619C8.96888 28.1619 9.55248 28.0959 10.1136 27.9858C15.4333 26.8636 18.7776 22.2866 18.2165 16.9394C17.7452 12.4724 13.7274 8.57755 9.17092 8.29148C7.38085 8.16724 5.59081 8.17454 3.80076 8.18184C3.05446 8.18489 2.30815 8.18793 1.56185 8.18144C0.798727 8.18144 0.641598 8.33551 0.641598 9.10568C0.619141 12.1423 0.619141 15.179 0.619141 18.1937ZM48.6755 8.99564V18.1496C48.6755 21.2084 48.6755 24.289 48.6525 27.3697C48.6525 28.0739 48.5628 28.1619 47.8669 28.1619C47.6033 28.1619 47.3423 28.1594 47.083 28.1569H47.0828C46.5693 28.1521 46.0624 28.1473 45.5551 28.1619C45.0615 28.1619 44.8369 27.9198 44.8369 27.4577V27.0836V9.21571C44.8369 8.2695 44.9718 8.15946 45.9368 8.15946H47.8224C48.5183 8.18144 48.6755 8.33551 48.6755 8.99564ZM76.2606 28.2279C76.3281 28.1995 76.3749 28.1834 76.4118 28.1707C76.4607 28.1538 76.4919 28.143 76.5304 28.1178C76.8844 27.9207 77.239 27.7236 77.5941 27.5262L77.5943 27.526C79.2209 26.6218 80.8571 25.7123 82.4784 24.7731C82.6355 24.6851 82.7474 24.377 82.7474 24.179C82.7704 22.3306 82.7704 20.5042 82.7704 18.6558V17.3575C82.7341 17.3575 82.7053 17.354 82.6823 17.3511C82.6479 17.3469 82.6266 17.3443 82.6133 17.3575C80.5706 18.5017 78.5279 19.646 76.4852 20.8122C76.3733 20.8782 76.2606 21.0543 76.2606 21.1864V28.2279ZM61.761 28.2499C61.8079 28.2346 61.8467 28.2246 61.8792 28.2163C61.94 28.2006 61.9788 28.1906 62.0078 28.1619C62.6776 27.7855 63.3475 27.4117 64.0175 27.0378C65.3453 26.2968 66.6733 25.5557 68.0009 24.7951C68.1581 24.7071 68.27 24.443 68.27 24.245C68.293 22.3746 68.293 20.5042 68.293 18.6337V17.3795C68.2537 17.3872 68.2199 17.3922 68.1916 17.3964C68.1388 17.4042 68.1051 17.4092 68.0906 17.4235C67.0934 17.9948 66.0904 18.5606 65.0874 19.1264L65.0861 19.1271L65.086 19.1271L65.0837 19.1284L65.0812 19.1298C64.0773 19.6962 63.0734 20.2625 62.0752 20.8343C61.9181 20.9223 61.8062 21.1864 61.8062 21.3844C61.7832 22.9688 61.7832 24.5751 61.7832 26.1594C61.761 26.8416 61.761 27.5237 61.761 28.2499ZM61.6261 13.1986C63.691 14.3208 65.7337 15.4651 67.8883 16.6753C67.6762 16.7898 67.4891 16.8994 67.3104 17.0041L67.3103 17.0041C67.1113 17.1207 66.9228 17.2311 66.7217 17.3355C66.2282 17.6138 65.7327 17.8941 65.2358 18.1752L65.2353 18.1755C64.0823 18.8277 62.9216 19.4843 61.761 20.1301C61.6038 20.2181 61.3348 20.2841 61.1999 20.2181C59.417 19.2302 57.6342 18.2258 55.8222 17.205L54.9599 16.7193C55.0285 16.6713 55.0842 16.6275 55.1346 16.5879L55.1346 16.5879C55.1997 16.5367 55.2559 16.4925 55.3194 16.4553C57.2042 15.3991 59.0898 14.3428 60.9976 13.2866C61.1777 13.1765 61.469 13.1105 61.6261 13.1986ZM82.0031 16.4623C82.0979 16.5274 82.1973 16.5956 82.3435 16.6753C81.2888 17.2915 80.2785 17.8636 79.2461 18.4137C78.2588 18.9858 77.2486 19.558 76.2384 20.1081C76.0813 20.1961 75.8122 20.2402 75.6773 20.1741C74.2695 19.394 72.8721 18.6036 71.4565 17.8031C70.7958 17.4294 70.1311 17.0535 69.4596 16.6753C69.4846 16.657 69.5082 16.6395 69.5309 16.6228C69.6712 16.5193 69.7703 16.4462 69.8865 16.3893L69.9609 16.348C71.7987 15.3275 73.6369 14.3068 75.4527 13.2646C75.767 13.0885 76.0138 13.0885 76.3281 13.2646C78.1646 14.3187 80.0241 15.3508 81.8836 16.3829L81.8951 16.3893C81.9319 16.4135 81.9672 16.4377 82.0031 16.4623Z" fill="white"/>
<path d="M30.986 21.6923C31.7271 20.152 32.4231 18.6996 33.0961 17.2473C34.488 14.3207 35.8792 11.4161 37.2489 8.48937C37.4957 7.96124 38.079 7.69722 38.5956 7.96124C38.775 8.0493 38.9099 8.33538 38.9321 8.55537C39.3138 10.6238 39.6726 12.6923 40.0543 14.7608C40.7947 18.8537 41.5359 22.9686 42.2541 27.0615C42.2985 27.2596 42.3215 27.4356 42.3438 27.6336C42.3438 27.9417 42.1866 28.1398 41.8501 28.1398C40.9296 28.1398 40.032 28.1837 39.1115 28.1177C38.9099 28.0957 38.5956 27.7656 38.5504 27.5456C38.1687 25.2791 37.81 23.0126 37.4505 20.7461C37.2711 19.5798 37.0918 18.4356 36.8894 17.2693C36.8672 17.1813 36.8449 17.1153 36.7775 16.9172C36.1935 18.1935 35.6546 19.3598 35.1165 20.5481C34.0166 22.9686 32.9167 25.3671 31.839 27.7877C31.6374 28.2278 31.4351 28.4478 30.8963 28.4478C30.3804 28.4478 30.1781 28.2278 29.9987 27.8097C28.4274 24.3549 26.8339 20.9221 25.2626 17.4674C25.1951 17.3133 25.1054 17.1593 24.9706 16.8733C24.7689 18.2155 24.5666 19.4258 24.3872 20.6141C24.0285 22.9246 23.669 25.2131 23.3096 27.5236C23.2428 27.9417 23.0405 28.1398 22.6143 28.1398C21.8509 28.1177 21.0875 28.1398 20.3019 28.1398C19.6513 28.1398 19.4717 27.9197 19.584 27.3035C19.8981 25.5211 20.2122 23.7608 20.5494 21.9784C21.3573 17.5114 22.1652 13.0664 22.9731 8.5994C23.0405 8.29135 23.0405 7.93926 23.4897 7.91729C23.9381 7.91729 24.3872 7.80725 24.6563 8.37933C26.3402 11.9662 28.0457 15.5529 29.7519 19.1398C30.1558 19.9759 30.5598 20.7901 30.986 21.6923Z" fill="black"/>
<path fill-rule="evenodd" clip-rule="evenodd" d="M0.61816 9.10569V18.1937C0.61816 21.2524 0.61816 24.289 0.595703 27.3477C0.595703 28.0299 0.730375 28.1619 1.40374 28.1619C2.18268 28.1619 2.96163 28.1643 3.73974 28.1668C5.29347 28.1717 6.84387 28.1765 8.3843 28.1619C8.9679 28.1619 9.52904 28.0959 10.0902 27.9858C15.4098 26.8416 18.7542 22.2866 18.193 16.9394C17.7217 12.4725 13.7264 8.55559 9.14749 8.29149C7.3362 8.18147 5.52495 8.18371 3.71369 8.18596C2.9886 8.18686 2.26351 8.18776 1.53841 8.18145C0.77529 8.15948 0.61816 8.33552 0.61816 9.10569ZM7.53142 24.6631H4.43389C4.43389 20.3282 4.43389 16.0372 4.41144 11.6583C5.00011 11.6882 5.58617 11.6748 6.16874 11.6615C7.29659 11.6356 8.41134 11.6101 9.50659 11.9003C12.6939 12.7585 14.6916 15.8612 14.1529 19.1179C13.5917 22.5727 11.0778 24.6631 7.53142 24.6631Z" fill="black"/>
<path d="M48.6747 18.1496C48.6747 21.2083 48.6747 24.289 48.6747 27.3476C48.6747 28.0518 48.585 28.1399 47.8891 28.1399C47.1257 28.1399 46.34 28.1178 45.5766 28.1399C45.0607 28.1618 44.8584 27.9198 44.8584 27.4357C44.8584 27.3037 44.8584 27.1936 44.8584 27.0616C44.8584 21.0983 44.8584 15.135 44.8584 9.19363C44.8584 8.26946 44.9933 8.13745 45.9583 8.13745C46.5868 8.13745 47.2153 8.13745 47.8439 8.13745C48.5398 8.13745 48.6969 8.29144 48.6969 8.97363C48.6747 12.0543 48.6747 15.113 48.6747 18.1496Z" fill="black"/>
<path d="M76.2598 28.2276C76.2598 25.8291 76.2598 23.5185 76.2598 21.208C76.2598 21.076 76.3717 20.9 76.4843 20.834C78.527 19.6677 80.5697 18.5235 82.6117 17.3792C82.6346 17.3572 82.6791 17.3792 82.7688 17.3792C82.7688 17.8193 82.7688 18.2374 82.7688 18.6774C82.7688 20.5258 82.7688 22.3523 82.7466 24.2007C82.7466 24.3988 82.6346 24.7068 82.4775 24.7948C80.5023 25.917 78.527 27.0173 76.5288 28.1396C76.4843 28.1616 76.4169 28.1835 76.2598 28.2276Z" fill="black"/>
<path d="M69.033 16.0152C69.033 13.8808 69.0775 11.8343 69.0101 9.78787C68.9878 8.97367 69.2569 8.55558 69.9758 8.18145C71.6813 7.30131 73.32 6.31107 75.0032 5.36486C75.1603 5.2768 75.3175 5.21079 75.5198 5.10083C75.542 5.32083 75.542 5.49687 75.542 5.67291C75.542 7.74138 75.542 9.80984 75.542 11.8783C75.542 12.2524 75.4294 12.4724 75.0929 12.6705C73.2303 13.6827 71.3892 14.717 69.5489 15.7511C69.414 15.8172 69.2798 15.8832 69.033 16.0152Z" fill="black"/>
<path d="M61.7598 28.2497C61.7598 27.5236 61.7598 26.8414 61.7598 26.1813C61.7598 24.5969 61.7598 22.9906 61.782 21.4062C61.782 21.2302 61.8947 20.9441 62.0518 20.8561C64.0493 19.7119 66.0697 18.5676 68.0672 17.4453C68.1117 17.4233 68.1569 17.4233 68.2688 17.4014C68.2688 17.8414 68.2688 18.2375 68.2688 18.6556C68.2688 20.526 68.2688 22.3965 68.2466 24.2668C68.2466 24.4429 68.1346 24.729 67.9775 24.817C66.0023 25.9612 63.9818 27.0614 61.9843 28.1837C61.9621 28.1837 61.8947 28.2057 61.7598 28.2497Z" fill="black"/>
<path d="M67.8876 16.6752C67.4384 16.9172 67.1019 17.1373 66.7425 17.3353C65.0815 18.2815 63.4435 19.2058 61.7825 20.13C61.6254 20.218 61.3556 20.284 61.2214 20.218C59.1565 19.0737 57.0909 17.9075 54.9814 16.7192C55.1156 16.6092 55.2283 16.5212 55.3402 16.4552C57.2257 15.3989 59.1113 14.3207 61.0191 13.2864C61.1985 13.1984 61.4905 13.1324 61.6476 13.1984C63.6903 14.3207 65.733 15.4649 67.8876 16.6752Z" fill="black"/>
<path d="M62.208 4.41864C64.3181 3.23038 66.3831 2.0641 68.448 0.919866C68.5599 0.85386 68.7622 0.85386 68.8742 0.919866C70.9391 2.0641 73.0047 3.20833 75.1141 4.39659C74.9793 4.48465 74.9125 4.55065 74.8228 4.61666C72.9143 5.69489 71.0065 6.79516 69.0765 7.85141C68.8971 7.96144 68.5377 7.98342 68.3583 7.87339C66.3831 6.79516 64.4301 5.67291 62.4548 4.57263C62.3874 4.55065 62.3199 4.50663 62.208 4.41864Z" fill="black"/>
<path d="M82.3422 16.6751C81.2652 17.2912 80.255 17.8633 79.2448 18.4354C78.2346 19.0076 77.2473 19.5797 76.2371 20.1298C76.0799 20.2178 75.8109 20.2618 75.676 20.1958C73.6111 19.0516 71.5684 17.8853 69.459 16.6971C69.6384 16.587 69.7503 16.499 69.8852 16.411C71.7478 15.3768 73.6111 14.3425 75.4514 13.2863C75.7657 13.1103 76.0125 13.1103 76.3268 13.2863C78.1678 14.3425 80.0527 15.3547 81.8937 16.411C82.0279 16.477 82.1628 16.5651 82.3422 16.6751Z" fill="black"/>
<path d="M4.43359 24.6628C4.43359 20.3059 4.43359 16.0369 4.43359 11.6799C6.16194 11.768 7.84531 11.4819 9.52875 11.922C12.7385 12.7582 14.7137 15.8609 14.175 19.1176C13.6138 22.5504 11.1 24.6628 7.55351 24.6628C6.52105 24.6628 5.51097 24.6628 4.43359 24.6628Z" fill="white"/>
</svg>
