<svg width="131" height="21" viewBox="0 0 131 21" fill="none" xmlns="http://www.w3.org/2000/svg">
<path fill-rule="evenodd" clip-rule="evenodd" d="M43.9551 15.9417H53.434V13.1892H47.4289V10.5942H52.5453V7.76276H47.4289V5.29859H53.434V2.57227H43.9551V15.9417Z" fill="black"/>
<mask id="mask0" mask-type="alpha" maskUnits="userSpaceOnUse" x="66" y="5" width="12" height="16">
<path fill-rule="evenodd" clip-rule="evenodd" d="M66.1543 5.39478H77.1108V20.2744H66.1543V5.39478Z" fill="white"/>
</mask>
<g mask="url(#mask0)">
<path fill-rule="evenodd" clip-rule="evenodd" d="M71.5397 13.9676C70.0539 13.9676 69.3644 12.6571 69.3644 11.0463C69.3644 9.43546 70.0539 8.17957 71.5397 8.17957C73.0253 8.17957 73.7147 9.49006 73.7147 11.1009C73.6885 12.7117 72.9988 13.9676 71.5397 13.9676ZM72.3621 5.39478C70.9561 5.39478 69.9213 5.83161 69.1254 7.03289H69.0724L68.6482 5.7224H66.1543V20.2746H69.3907V15.6876H69.444C70.0539 16.3974 70.9561 16.7253 72.2029 16.7253C75.0411 16.7253 77.1106 14.2133 77.1106 11.2101V10.8006C77.1371 7.44242 74.7759 5.39478 72.3621 5.39478Z" fill="black"/>
</g>
<path fill-rule="evenodd" clip-rule="evenodd" d="M81.037 9.73574C81.1962 8.61636 81.8328 7.77 83.1062 7.77C84.2204 7.77 84.9366 8.56175 84.9366 9.73574H81.037ZM88.1727 10.6913C88.1727 7.08745 85.7059 5.36743 83.0266 5.36743C80.0289 5.36743 77.668 7.55158 77.668 10.9097V11.2649C77.668 14.6777 80.2144 16.7523 83.1592 16.7523C85.5467 16.7523 87.669 15.551 88.1727 13.0666H85.122C84.804 13.9129 84.0877 14.1859 83.2388 14.1859C81.8859 14.1859 81.1429 13.2304 80.984 11.8653H88.1465C88.1465 11.6469 88.1727 11.1284 88.1727 10.6913Z" fill="black"/>
<path fill-rule="evenodd" clip-rule="evenodd" d="M95.0165 5.39478C93.6901 5.39478 92.6555 5.91351 91.939 7.11479H91.8859L91.4617 5.7224H88.915V16.4247H92.178V10.1999C92.178 8.83481 92.8144 8.17957 93.8755 8.17957C94.7777 8.17957 95.4672 8.78021 95.4672 10.1999V16.3974H98.7831V9.18974C98.7831 7.11479 97.5631 5.39478 95.0165 5.39478Z" fill="black"/>
<path fill-rule="evenodd" clip-rule="evenodd" d="M103.718 9.49002C103.16 9.38081 102.789 9.10779 102.789 8.53445C102.789 8.04302 103.134 7.66079 103.877 7.66079C104.699 7.66079 105.097 8.09762 105.097 8.80747H108.068V8.56175C108.068 6.323 106.052 5.36743 103.823 5.36743C101.834 5.36743 99.5527 6.24109 99.5527 8.75287V8.91668C99.5527 9.65383 99.8179 10.3637 100.322 10.9097C101.357 11.9745 102.948 12.0837 104.009 12.3567C104.911 12.6024 105.124 13.012 105.124 13.5034C105.124 14.1586 104.619 14.459 103.877 14.459C102.975 14.459 102.444 13.9402 102.391 12.9301H99.4463V13.1758C99.5527 15.7968 101.516 16.7523 103.903 16.7523C106.025 16.7523 108.36 15.7422 108.36 13.2304V13.012C108.36 12.2748 108.121 11.5377 107.67 11.0462C106.609 9.89955 105.017 9.70843 103.718 9.49002Z" fill="black"/>
<mask id="mask1" mask-type="alpha" maskUnits="userSpaceOnUse" x="0" y="0" width="131" height="21">
<path fill-rule="evenodd" clip-rule="evenodd" d="M0.206055 20.2744H130.511V0.507812H0.206055V20.2744Z" fill="white"/>
</mask>
<g mask="url(#mask1)">
<path fill-rule="evenodd" clip-rule="evenodd" d="M108.997 16.4248H112.287V5.72241H108.997V16.4248Z" fill="black"/>
<path fill-rule="evenodd" clip-rule="evenodd" d="M65.4916 5.72241H61.8838L60.133 8.4253L58.3822 5.72241H54.6152L58.1965 10.7733L54.1377 16.4248H57.7985L60.0004 13.2031L62.2022 16.4248H65.9426L61.9634 10.6641L65.4916 5.72241Z" fill="black"/>
<path fill-rule="evenodd" clip-rule="evenodd" d="M110.615 0.507812C109.527 0.507812 108.652 1.40878 108.652 2.52815C108.652 3.64753 109.527 4.54849 110.615 4.54849C111.703 4.54849 112.578 3.64753 112.578 2.52815C112.578 1.40878 111.703 0.507812 110.615 0.507812Z" fill="black"/>
<path fill-rule="evenodd" clip-rule="evenodd" d="M127.089 5.69517L124.834 12.1111L122.739 5.69517L118.202 5.72248V5.36755C118.202 4.46659 118.813 3.53832 119.794 3.51102C119.953 3.51102 120.749 3.48372 120.749 3.48372L120.776 0.507812H119.582C116.77 0.562416 114.939 2.77387 114.939 5.53136V5.72248H113.003V8.28885H114.939V16.4248H118.229V8.26155H120.378L123.137 15.6604L121.227 20.2471H124.675L130.511 5.69517H127.089Z" fill="black"/>
<path fill-rule="evenodd" clip-rule="evenodd" d="M10.1006 8.15226C9.96801 7.71543 9.80884 7.3059 9.6762 6.86907C9.51704 6.35033 9.30481 6.18652 8.85384 6.18652H5.08688C4.63591 6.18652 4.42368 6.37764 4.26452 6.86907C4.10535 7.3059 3.97271 7.71543 3.84007 8.15226C3.70743 8.58909 3.70743 8.58909 4.10535 8.58909H9.83537C10.2333 8.58909 10.2333 8.58909 10.1006 8.15226Z" fill="black"/>
<path fill-rule="evenodd" clip-rule="evenodd" d="M11.9579 8.37064C11.8253 8.53445 11.6661 8.56175 11.5069 8.58906C11.3212 8.61636 11.2947 8.69826 11.3478 8.83477C11.5335 9.217 11.5865 10.391 11.5865 10.9643V13.1212C11.56 13.5034 11.4273 13.6126 11.1355 13.6126C10.8437 13.6126 10.2866 13.6399 9.94179 13.6126C9.70303 13.5856 9.5704 13.4215 9.5704 13.1485V12.384C9.5704 12.1383 9.54387 12.084 9.33164 12.084H4.71579C4.50357 12.084 4.47704 12.1656 4.47704 12.384V13.1485C4.47704 13.4215 4.3444 13.6126 4.10565 13.6126C3.76079 13.6399 3.23023 13.6126 2.9119 13.6126C2.59356 13.6126 2.46092 13.5034 2.46092 13.1212V10.9643C2.46092 10.391 2.54051 9.2443 2.69968 8.83477C2.75273 8.69826 2.7262 8.61636 2.54051 8.58906C2.35481 8.56175 2.22217 8.53445 2.08953 8.37064C1.98342 8.23413 1.98342 8.04302 2.03648 7.87921C2.08953 7.7154 2.22217 7.71539 2.35481 7.71539H2.9119C3.04454 7.71539 3.09759 7.66079 3.15065 7.52428C3.30982 7.11475 3.52204 6.56872 3.70773 6.15919C3.91996 5.69505 4.29135 5.31283 4.76885 5.31283H9.19901C9.67651 5.34013 10.0479 5.72236 10.2601 6.15919C10.4458 6.56872 10.658 7.11475 10.8172 7.52428C10.8703 7.66079 10.9233 7.71539 11.056 7.71539H11.613C11.7457 7.71539 11.8783 7.7154 11.9314 7.87921C11.9844 8.04302 11.9844 8.23413 11.9579 8.37064ZM12.4354 2.50073H1.47939C0.789668 2.50073 0.206055 3.10137 0.206055 3.81122V15.0872C0.206055 15.7968 0.76314 16.3974 1.47939 16.3974H12.4354C13.1251 16.3974 13.7087 15.8241 13.7087 15.0872V3.81122C13.7087 3.10137 13.1517 2.50073 12.4354 2.50073Z" fill="black"/>
<path fill-rule="evenodd" clip-rule="evenodd" d="M3.99913 9.43555C3.57469 9.43555 3.33594 9.73587 3.33594 10.1454V10.2C3.33594 10.5549 3.65427 10.8552 3.99913 10.8279H4.07872C4.42358 10.8279 4.68886 10.5003 4.68886 10.1454C4.68886 9.73587 4.45011 9.43555 3.99913 9.43555Z" fill="black"/>
<path fill-rule="evenodd" clip-rule="evenodd" d="M9.91515 9.43555C9.4907 9.43555 9.25195 9.73587 9.25195 10.1454V10.2C9.25195 10.5549 9.57029 10.8552 9.91515 10.8279H9.96821C10.3131 10.8279 10.5783 10.5003 10.5783 10.1454C10.6049 9.73587 10.3396 9.43555 9.91515 9.43555Z" fill="black"/>
<path fill-rule="evenodd" clip-rule="evenodd" d="M25.169 13.6675C25.169 13.9678 24.9302 14.2135 24.6384 14.2135H24.4262C24.1344 14.2135 23.8956 13.9678 23.8956 13.6675V10.6096C23.8691 10.4458 23.7895 10.3093 23.6569 10.2547C23.2855 10.0909 23.0467 9.68138 23.0467 9.27185V5.80451C23.0467 5.25847 23.4447 4.73973 24.0017 4.68513H24.1079C24.6915 4.68513 25.169 5.17656 25.169 5.7772V13.6675ZM21.0837 8.69851L20.7919 8.86232C20.6062 8.97153 20.5001 9.18994 20.5001 9.40836V13.6675C20.5001 13.9678 20.2613 14.2135 19.9695 14.2135H19.7838C19.492 14.2135 19.2532 13.9678 19.2532 13.6675V9.40836C19.2532 9.18994 19.1206 8.99883 18.9614 8.86232L18.6962 8.69851C18.4309 8.5347 18.2982 8.23438 18.2982 7.93405L18.537 4.87624C18.537 4.76703 18.6166 4.68513 18.7227 4.68513H18.8819C18.988 4.68513 19.0676 4.76703 19.0676 4.87624L19.0941 7.1969C19.0941 7.25151 19.1471 7.30611 19.2002 7.30611H19.3328C19.3859 7.30611 19.4389 7.25151 19.4389 7.1969L19.5981 4.87624C19.5981 4.76703 19.6777 4.68513 19.7838 4.68513H19.943C20.0491 4.68513 20.1287 4.76703 20.1287 4.87624L20.2878 7.1969C20.2878 7.25151 20.3409 7.30611 20.3939 7.30611H20.5531C20.6062 7.30611 20.6592 7.25151 20.6592 7.1969L20.6858 4.87624C20.6858 4.76703 20.7653 4.68513 20.8714 4.68513H21.0306C21.1367 4.68513 21.2163 4.76703 21.2163 4.87624L21.4816 7.93405C21.4816 8.23438 21.349 8.5347 21.0837 8.69851ZM27.2381 2.50098H16.2821C15.5659 2.50098 15.0088 3.10162 15.0088 3.81147V15.0872C15.0088 15.797 15.5659 16.3976 16.2821 16.3976H27.2381C27.9279 16.3976 28.5115 15.824 28.5115 15.0872V3.81147C28.5115 3.10162 27.9544 2.50098 27.2381 2.50098Z" fill="black"/>
<path fill-rule="evenodd" clip-rule="evenodd" d="M40.9002 6.24109C40.5288 6.67792 39.282 7.90651 38.9371 8.26143C38.8575 8.34334 38.831 8.47985 38.8575 8.58906C39.0963 9.49002 39.7064 12.5205 39.8656 13.1485C39.8921 13.2577 39.8656 13.3942 39.786 13.4761C39.6268 13.6399 39.4677 13.8037 39.3085 13.9948C39.1493 14.1586 38.9902 14.1313 38.8841 13.9129C38.4861 13.0666 37.4516 10.8278 37.2924 10.5002C37.1863 10.2818 37.0802 10.2545 36.8945 10.4183C36.4435 10.7732 35.7538 11.3738 35.3293 11.7288C35.2232 11.838 35.064 11.9472 35.1171 12.111C35.1436 12.4386 35.1702 12.7389 35.2232 13.0393C35.2497 13.1758 35.2232 13.3123 35.1171 13.3942C35.011 13.5034 34.9049 13.6126 34.7988 13.7218C34.6396 13.8583 34.507 13.831 34.4008 13.6672C34.2152 13.3123 34.0295 12.9574 33.8438 12.6024C33.8172 12.5478 33.7642 12.4932 33.7376 12.4659C33.6846 12.4113 33.6581 12.384 33.605 12.3567C33.2601 12.1656 32.9153 11.9745 32.5704 11.7834C32.4113 11.6742 32.3847 11.5104 32.5174 11.3738C32.6235 11.2646 32.7296 11.1554 32.8357 11.0462C32.9418 10.9643 33.0479 10.9097 33.1806 10.937C33.4724 10.9643 33.7642 11.0189 34.0825 11.0462C34.2417 11.1008 34.3478 10.9643 34.4539 10.8278C34.7988 10.3637 35.3824 9.65383 35.7272 9.217C35.8864 9.02589 35.8599 8.91668 35.6477 8.80747C35.3293 8.64366 33.1275 7.57889 32.3317 7.16936C32.1194 7.08745 32.0929 6.89634 32.2521 6.73253C32.4113 6.56872 32.5704 6.4049 32.7296 6.24109C32.8092 6.15919 32.9418 6.13189 33.0479 6.15919C33.6581 6.323 36.6027 6.97824 37.4781 7.19666C37.6107 7.22396 37.7168 7.16936 37.7964 7.08745C38.1413 6.73253 39.335 5.44934 39.7595 5.06711C40.0778 4.76679 40.5288 4.76679 40.8471 5.06711C41.192 5.39473 41.192 5.91347 40.9002 6.24109ZM42.0674 2.50073H31.0849C30.3686 2.50073 29.8115 3.10137 29.8115 3.81122V15.1142C29.8115 15.8241 30.3686 16.4247 31.0849 16.4247H42.0674C42.7571 16.4247 43.3407 15.8514 43.3407 15.1142V3.81122C43.3407 3.10137 42.7837 2.50073 42.0674 2.50073Z" fill="black"/>
</g>
</svg>
