<svg width="122" height="17" viewBox="0 0 122 17" fill="none" xmlns="http://www.w3.org/2000/svg">
<path fill-rule="evenodd" clip-rule="evenodd" d="M4.25767 0.328613L0.880859 3.64712V16.9004H4.25767V10.2841H9.29122V6.96562H4.25767V3.64712H10.9691V0.328613H4.25767Z" fill="black"/>
<path fill-rule="evenodd" clip-rule="evenodd" d="M19.7124 0.328613L16.3496 3.64712V16.9004H19.7124V10.2841H23.054V16.9004H26.4379V3.64712L23.054 0.328613H19.7124ZM19.7124 6.94488H23.054V3.64712H19.7124V6.94488Z" fill="black"/>
<path fill-rule="evenodd" clip-rule="evenodd" d="M118.577 0.328613V6.96562H115.235V0.328613H111.852V16.9004H115.235V10.2841H118.577V16.9004H121.94V0.328613H118.577Z" fill="black"/>
<path fill-rule="evenodd" clip-rule="evenodd" d="M33.1631 0.328613V16.9004H36.5189V10.2841H39.8956V16.9004H43.2514V10.2841L39.8956 6.96562H36.5189V3.64712H39.8956V6.96562H43.2514V3.64712L39.8956 0.328613H33.1631Z" fill="black"/>
<path fill-rule="evenodd" clip-rule="evenodd" d="M53.3543 0.328613L49.9775 3.64712V16.9004H53.3543V10.2841H58.3879V6.96562H53.3543V3.64712H60.0658V0.328613H53.3543Z" fill="black"/>
<path fill-rule="evenodd" clip-rule="evenodd" d="M80.936 0.328613L80.915 3.64712H84.2705V16.9004H87.6264V3.64712H91.0033V0.328613H80.936Z" fill="black"/>
<path fill-rule="evenodd" clip-rule="evenodd" d="M68.1293 0.328613L64.7734 3.64712V13.5819L68.1293 16.9004H74.8617V13.5819H68.15H68.1293V10.2841H73.1838V6.96562H68.1293V3.64712H74.8617V0.328613H68.1293Z" fill="black"/>
<path fill-rule="evenodd" clip-rule="evenodd" d="M99.7384 0.328613L96.3828 3.64712V13.5819L99.7384 16.9004H106.471V13.5819H99.7594V3.64712H106.471V0.328613H99.7384Z" fill="black"/>
</svg>
