<svg width="137" height="16" viewBox="0 0 137 16" fill="none" xmlns="http://www.w3.org/2000/svg">
<path d="M7.6772 15.3439C3.25282 15.3439 0.222656 12.2962 0.222656 8.23127C0.222656 4.22637 3.37381 0.999268 7.61624 0.999268C10.1618 0.999268 11.6768 1.6567 13.1919 2.9115L11.2531 5.24263C10.1618 4.34565 9.19232 3.80849 7.55528 3.80849C5.25266 3.80849 3.43376 5.7808 3.43376 8.17214C3.43376 10.6827 5.25166 12.5357 7.73615 12.5357C8.88745 12.5357 9.8569 12.2371 10.7054 11.6989V9.72555H7.55528V7.09574H13.6766V13.1331C12.2225 14.3277 10.2227 15.3439 7.6772 15.3439Z" fill="black"/>
<path fill-rule="evenodd" clip-rule="evenodd" d="M15.5557 8.17214C15.5557 4.22738 18.5858 0.999268 22.8283 0.999268C27.0708 0.999268 30.1009 4.16724 30.1009 8.112C30.1009 12.0567 27.0708 15.2848 22.8283 15.2848C18.5858 15.2848 15.5557 12.1168 15.5557 8.17214ZM22.8273 12.4746C25.2519 12.4746 26.9489 10.5624 26.9489 8.17113C26.9489 5.7808 25.2519 3.80849 22.8283 3.80849C20.4037 3.80849 18.7067 5.72073 18.7067 8.112C18.7067 10.5023 20.4027 12.4746 22.8273 12.4746Z" fill="black"/>
<path d="M38.8874 15.3442C34.9477 15.3442 31.9785 12.1762 31.9785 8.1714C31.9785 4.22665 34.8878 0.998535 38.9484 0.998535C41.4329 0.998535 42.948 1.89552 44.3422 3.21046L43.2508 4.34592C42.0995 3.21046 40.8263 2.43376 38.9484 2.43376C35.9182 2.43376 33.6156 4.88416 33.6156 8.1714C33.6156 11.3995 35.9182 13.909 38.9484 13.909C40.8273 13.909 42.0995 13.1915 43.3727 11.9367L44.4031 12.9529C43.009 14.3881 41.4329 15.3442 38.8874 15.3442Z" fill="black"/>
<path fill-rule="evenodd" clip-rule="evenodd" d="M51.7359 1.29834H53.1899L59.4917 15.1058H57.7951L56.1588 11.4598H48.6442L47.0086 15.1058H45.4326L51.7359 1.29834ZM52.4633 3.0913L49.312 10.0848H55.6145L52.4633 3.0913Z" fill="black"/>
<path fill-rule="evenodd" clip-rule="evenodd" d="M72.5838 5.4225C72.5838 7.69349 71.0689 9.0685 68.8869 9.42733L73.0082 15.1058H71.0696L67.1299 9.72601H63.2513V15.1058H61.7363V1.29834H67.6146C70.6452 1.29834 72.5838 2.91196 72.5838 5.4225ZM63.3109 2.73255V8.35093H67.4925C69.5532 8.35093 71.0078 7.27453 71.0078 5.48164C71.0078 3.74881 69.6745 2.73255 67.4925 2.73255H63.3109Z" fill="black"/>
<path fill-rule="evenodd" clip-rule="evenodd" d="M75.3711 1.29834H80.28C84.7036 1.29834 87.7336 4.28697 87.7946 8.17252C87.735 12.0571 84.7043 15.1058 80.28 15.1058H75.3711V1.29834ZM77.0074 13.6707H80.28C83.7954 13.6707 86.098 11.2804 86.098 8.23166C86.098 5.12382 83.8564 2.73255 80.28 2.73255H77.0074V13.6707Z" fill="black"/>
<path d="M90.2207 1.29834H91.8563V13.6707H99.9165V15.1058H90.2207V1.29834Z" fill="black"/>
<path d="M111.795 2.73255H103.674V7.45495H110.886V8.83003H103.674V13.6707H111.855V15.1058H102.159V1.29834H111.795V2.73255Z" fill="black"/>
<path d="M119.794 7.39474C122.824 8.05217 124.218 9.1877 124.218 11.3394C124.218 13.7307 122.279 15.2842 119.552 15.2842C117.371 15.2842 115.612 14.5666 113.977 13.0722L114.946 11.9368C116.34 13.2517 117.733 13.9091 119.612 13.9091C121.43 13.9091 122.642 12.953 122.642 11.5178C122.642 10.203 121.976 9.42625 119.066 8.82787C115.915 8.1103 114.46 7.09404 114.46 4.76291C114.46 2.55105 116.339 0.9375 118.944 0.9375C120.944 0.9375 122.338 1.53479 123.733 2.61119L122.823 3.86592C121.551 2.7896 120.278 2.37164 118.883 2.37164C117.126 2.37164 115.974 3.3879 115.974 4.64263C116.097 6.01973 116.764 6.79744 119.794 7.39474Z" fill="black"/>
<path d="M132.218 7.39474C135.248 8.05217 136.643 9.1877 136.643 11.3394C136.643 13.7307 134.704 15.2842 131.976 15.2842C129.794 15.2842 128.037 14.5666 126.4 13.0722L127.37 11.9368C128.764 13.2517 130.158 13.9091 132.036 13.9091C133.854 13.9091 135.067 12.953 135.067 11.5178C135.067 10.203 134.4 9.42625 131.49 8.82787C128.34 8.1103 126.884 7.09404 126.884 4.76291C126.884 2.55105 128.763 0.9375 131.369 0.9375C133.369 0.9375 134.763 1.53479 136.157 2.61119L135.248 3.86592C133.975 2.7896 132.702 2.37164 131.308 2.37164C129.55 2.37164 128.399 3.3879 128.399 4.64263C128.462 6.01973 129.188 6.79744 132.218 7.39474Z" fill="black"/>
</svg>
