<svg width="80" height="39" viewBox="0 0 80 39" fill="none" xmlns="http://www.w3.org/2000/svg">
<path d="M5.15036 15.383C6.56336 14.6939 8.13424 14.3638 9.70513 14.4355C12.7506 14.536 14.4272 16.072 14.4967 19.0865C14.567 22.2374 14.5496 25.3595 14.5322 28.5104C14.5322 29.788 14.1896 30.0823 12.9171 30.0823H11.1536C10.0209 30.0823 9.67036 29.7449 9.65226 28.6109V20.1703C9.65226 18.864 9.02941 18.3257 7.70404 18.3831C7.47591 18.3831 7.23908 18.4118 7.01094 18.4549C5.26407 18.8066 5.16774 18.9358 5.16774 20.6942V28.2161C5.16774 29.831 4.88674 30.1038 3.29847 30.1038H1.51683C0.683228 30.1038 0.314589 29.7162 0.261719 28.8621V8.97355C0.261719 7.51654 0.577489 7.21509 2.01728 7.21509H3.57948C4.79041 7.21509 5.15905 7.55243 5.18512 8.7654C5.22061 10.5813 5.18512 12.3972 5.18512 14.2059C5.15036 14.5432 5.15036 14.9021 5.15036 15.383Z" fill="black"/>
<path fill-rule="evenodd" clip-rule="evenodd" d="M31.1216 23.5348C31.1501 23.2542 31.1772 22.987 31.2082 22.7398C31.1807 22.3881 31.1597 22.0677 31.1399 21.7658C31.1026 21.1989 31.0697 20.6973 31.0068 20.1774C30.6469 17.0768 29.0492 15.182 26.2232 14.6221C25.1615 14.4355 24.0823 14.3637 23.0025 14.4212C20.0099 14.5288 17.9733 15.9499 17.1926 18.5984C16.4553 21.1177 16.4553 23.7948 17.1926 26.3213C17.6931 28.3238 19.3161 29.8454 21.3527 30.2401C22.9677 30.6205 24.6436 30.6492 26.2587 30.2975C28.6284 29.91 30.4709 28.0438 30.8221 25.6968C30.977 24.9575 31.0532 24.2074 31.1216 23.5348ZM26.2626 22.5851C26.267 22.6563 26.2715 22.7293 26.2761 22.8043C26.1971 23.5939 26.0653 24.3906 25.89 25.1801C25.7141 26.0916 24.8805 26.7304 23.9418 26.6658C22.9496 26.7806 22.0458 26.1131 21.8618 25.1442C21.4229 23.4001 21.4229 21.5842 21.8618 19.8401C22.0371 18.8855 22.9062 18.218 23.8803 18.2898C24.8805 18.2108 25.7756 18.8998 25.9516 19.876C26.0392 20.1702 26.1008 20.4645 26.1356 20.7731C26.1838 21.2973 26.217 21.8394 26.2626 22.5851Z" fill="black"/>
<path fill-rule="evenodd" clip-rule="evenodd" d="M60.7052 18.34C62.2761 18.2754 62.636 18.7706 62.4253 20.3927C62.184 20.4193 61.9425 20.4454 61.7007 20.4716C60.5707 20.5938 59.4354 20.7165 58.3007 20.888C56.6943 21.1392 55.1322 21.6631 54.3514 23.3068C52.6748 26.7663 54.8866 30.4052 58.7302 30.5487C60.5031 30.6492 62.2413 30.0894 63.6275 28.9984L63.8738 29.3501C64.4879 30.0894 65.4968 30.3693 66.4007 30.0391C67.2082 29.7808 67.2082 29.0846 67.2082 28.4027V19.431C67.2082 16.8973 66.0588 15.3398 63.6978 14.78C61.0999 14.2058 58.3884 14.335 55.8521 15.1676C54.7548 15.4834 54.6585 16.6461 54.904 18.0027C55.0532 18.8209 55.8347 19.0936 56.8964 18.8998C58.1515 18.6414 59.424 18.4477 60.7052 18.34ZM61.6201 23.1608C61.9025 23.1237 62.1935 23.0855 62.4955 23.0412H62.5042C62.5042 24.1665 62.5041 25.1721 62.4782 26.1849C62.4782 26.3069 62.434 26.4289 62.3637 26.5294C61.9777 27.0533 60.3192 27.3548 59.5377 27.0533C58.7483 26.7232 58.3007 25.8834 58.476 25.0509C58.4934 24.2255 59.1169 23.5221 59.9505 23.4216C60.4836 23.3101 61.0331 23.2379 61.6201 23.1608Z" fill="black"/>
<path d="M34.5508 14.9668V12.9572C34.4806 12.3543 34.876 11.7729 35.4815 11.6293C36.2796 11.3638 37.0871 11.1413 37.9033 10.9547C38.4914 10.7681 39.1324 11.0767 39.325 11.6652C39.3779 11.816 39.3953 11.9882 39.3779 12.1533C39.404 13.0146 39.3779 13.8687 39.3779 14.8305H41.6947C42.8267 14.8592 43.2135 15.218 43.2569 16.3808C43.3185 18.735 43.1867 18.8713 40.8438 18.8713H39.4829C39.4481 19.0866 39.4221 19.2948 39.4126 19.5101V24.484C39.4126 26.0344 39.8783 26.5009 41.3964 26.6157C42.7304 26.7162 43.0904 27.0033 43.0904 28.0799C43.1338 29.7953 42.7833 30.3767 41.3964 30.4556C40.2904 30.5346 39.1845 30.4843 38.0967 30.2906C35.8407 29.8384 34.6211 28.3885 34.5421 26.0128C34.4719 23.9529 34.516 21.8787 34.5073 19.8116V18.8857H33.1378C32.4976 18.9359 31.9269 18.455 31.874 17.8234C31.874 17.7875 31.874 17.7517 31.874 17.7158C31.69 16.1296 31.9703 15.7133 33.4891 15.2826L34.5508 14.9668Z" fill="black"/>
<path d="M51.5234 24.5987C51.5234 27.2759 51.5762 29.9603 51.5234 32.6446C51.506 35.7381 48.9697 38.2358 45.854 38.2286C45.5556 38.2286 45.2572 38.1999 44.9675 38.1568C43.8797 38.0205 43.493 37.597 43.4756 36.4773V35.4868C43.5198 34.5394 43.8182 34.2236 44.7481 34.0442C46.1966 33.7786 46.6615 33.2475 46.6702 31.7403V16.4811C46.6702 15.182 47.0041 14.8447 48.3114 14.7944H50.0843C51.1374 14.8447 51.5321 15.2251 51.5321 16.273V24.5413L51.5234 24.5987Z" fill="black"/>
<path d="M73.3258 15.8925C74.607 14.981 76.125 14.4786 77.7046 14.4211C79.2668 14.4211 79.6267 14.7441 79.618 16.2801V16.9691C79.618 17.9596 79.2059 18.3113 78.2318 18.4118C77.3099 18.5266 76.3973 18.6845 75.5022 18.8927C74.8967 19.0218 74.6686 19.3807 74.6773 20.0482C74.7207 22.8546 74.6773 25.625 74.6773 28.4099C74.6773 29.7808 74.3789 30.0679 72.9832 30.0894H70.9735C70.3941 30.1324 69.8849 29.709 69.8415 29.142C69.8328 29.0702 69.8328 29.0056 69.8415 28.9338V16.0576C69.7973 15.4834 70.2275 14.9882 70.8069 14.9379H70.8504C71.8245 14.78 72.8514 14.6221 73.3258 15.8925Z" fill="black"/>
<path d="M50.9976 12.0743C51.8841 8.93055 51.5589 7.34435 50.0148 7.03572C50.2517 8.11233 50.5146 9.2033 49.3826 9.94974C48.7858 10.3301 48.3208 10.1938 47.2678 9.38991C46.7847 10.3732 46.952 11.3565 47.1715 12.4116C45.6614 12.1532 44.4766 11.5288 43.924 10.0861C43.3533 8.77265 43.669 7.24387 44.7047 6.26057C45.0646 5.89452 45.4601 5.56436 45.8722 5.26291C47.5662 3.99969 47.8906 2.77953 47.0042 0.877523C46.9607 0.77704 46.9339 0.662202 46.9078 0.547363C48.7945 0.834459 50.5761 1.58808 52.0862 2.72929C55.3858 5.40646 54.9911 10.2153 51.3489 11.9953C51.2345 11.9953 51.1114 12.0168 50.9976 12.0743Z" fill="black"/>
</svg>
