<svg width="91" height="17" viewBox="0 0 91 17" fill="none" xmlns="http://www.w3.org/2000/svg">
<path d="M0.0136719 16.4195V1.02772H4.0122V3.0919C4.9343 1.51477 6.27125 0.740967 8.08877 0.740967C9.90628 0.740967 11.2699 1.5464 12.2475 3.21841C13.8103 1.53164 15.0117 0.753618 16.8827 0.753618C20.2589 0.753618 22.1586 2.70184 22.1586 6.28412V16.43H17.8582V8.08053C17.8582 5.92989 17.4125 4.95578 15.7654 4.95578C14.1184 4.95578 13.1963 6.01002 13.1963 8.08053V16.4195H8.87122V8.08053C8.87122 5.92989 8.42352 4.95578 6.77646 4.95578C5.1294 4.95578 4.20935 6.01002 4.20935 8.08053V16.4195H0.0136719Z" fill="black"/>
<path fill-rule="evenodd" clip-rule="evenodd" d="M36.14 1.21044C33.1836 -0.0102093 29.8024 0.708911 27.5616 3.03494C26.0915 4.52532 25.267 6.5602 25.2738 8.6814C25.2531 10.7976 26.0456 12.837 27.4795 14.3574C29.0156 16.0189 30.8578 16.8222 33.1477 16.8222C35.2872 16.8585 37.3467 15.9874 38.8405 14.4143C40.3458 12.8667 41.0995 10.9438 41.0995 8.62447C41.0512 5.35331 39.0964 2.43109 36.14 1.21044ZM36.717 8.73833C36.717 10.8363 35.1274 12.523 33.1723 12.523C31.246 12.523 29.6276 10.8616 29.6276 8.73833C29.6276 6.61511 31.2131 4.92834 33.1723 4.92834C35.1315 4.92834 36.717 6.64041 36.717 8.73833Z" fill="black"/>
<path d="M44.2148 16.4195V1.02772H48.4023L48.3469 3.0919C49.269 1.54429 50.6634 0.740967 52.6452 0.740967C55.7442 0.740967 57.7548 2.74822 57.7548 6.27146V16.4174H53.3435V8.08053C53.3435 5.92989 52.8978 4.95578 51.1933 4.95578C49.4887 4.95578 48.542 6.01002 48.542 8.08053V16.4195H44.2148Z" fill="black"/>
<path fill-rule="evenodd" clip-rule="evenodd" d="M85.4254 1.21117C82.4689 -0.00930315 79.0879 0.709425 76.8466 3.03483C75.3777 4.52578 74.5547 6.56066 74.5629 8.68129C74.5417 10.7972 75.3334 12.8365 76.7665 14.3573C78.3006 16.0187 80.1428 16.8221 82.4326 16.8221C84.5727 16.8579 86.6327 15.987 88.1275 14.4142C89.6329 12.8666 90.3866 10.9437 90.3866 8.62436C90.3371 5.35328 88.3818 2.43164 85.4254 1.21117ZM86.004 8.73822C86.004 10.8361 84.4124 12.5229 82.4593 12.5229C80.533 12.5229 78.9126 10.8614 78.9126 8.73822C78.9126 6.615 80.4981 4.92823 82.4593 4.92823C84.4206 4.92823 86.004 6.6403 86.004 8.73822Z" fill="black"/>
<path d="M61.168 16.4195V13.2104L67.329 5.01267H61.168V1.02979H72.3031V4.66899L66.8587 12.4366H72.414V16.4195H61.168Z" fill="black"/>
</svg>
