<svg width="79" height="33" viewBox="0 0 79 33" fill="none" xmlns="http://www.w3.org/2000/svg">
<path fill-rule="evenodd" clip-rule="evenodd" d="M8.18945 4.30391C8.18945 2.19782 9.97571 0.523438 12.241 0.523438C14.5063 0.523438 16.2926 2.19782 16.1761 4.30391C16.1761 5.10188 15.9819 5.79517 15.516 6.41001C15.516 6.41001 12.9789 9.82423 12.3187 10.6876C12.241 10.8184 12.1115 10.8184 12.0469 10.6876C11.4385 9.82423 8.84957 6.41001 8.84957 6.41001C8.46125 5.79517 8.18945 5.04958 8.18945 4.30391ZM12.3057 6.35771L13.3672 5.36353C13.7037 5.06265 13.8332 4.68325 13.8332 4.30391C13.8332 3.49287 13.173 2.81266 12.241 2.81266C11.3737 2.81266 10.6489 3.44057 10.6489 4.30391C10.6489 4.70947 10.8171 5.08881 11.1148 5.36353L12.1763 6.35771C12.2087 6.3904 12.2249 6.40674 12.241 6.40674C12.2572 6.40673 12.2734 6.39039 12.3057 6.35771Z" fill="black"/>
<path fill-rule="evenodd" clip-rule="evenodd" d="M22.1302 1.2561H27.6698C27.7347 1.2561 27.8513 1.38693 27.7347 1.45231L16.8745 17.2938C16.8098 17.4246 16.6932 17.4246 16.6286 17.2938L13.9232 13.304C13.8584 13.1862 13.8584 13.0424 13.9232 12.9246L21.7543 1.45231C21.8839 1.32155 22.0006 1.2561 22.1302 1.2561ZM1.04348 7.65291C0.991698 7.53515 1.04348 7.4697 1.17297 7.4697C1.17297 7.4697 6.71316 7.4697 6.71316 7.40433C6.84257 7.40433 7.02384 7.4697 7.08851 7.60053L22.4017 30.1526C22.5184 30.3358 22.8288 30.532 23.0751 30.532H23.0362C23.2688 30.5451 23.4633 30.7413 23.4503 30.9768V31.6047C23.4503 31.8532 23.2688 32.0495 23.0233 32.0495H17.9747C17.7935 32.0495 17.4311 31.8663 17.3017 31.6701L12.3051 24.253C12.2404 24.1222 12.1239 24.1222 12.0592 24.253L7.06266 31.6701C6.94613 31.8532 6.63545 32.0495 6.38951 32.0495H1.3412C1.09526 32.0495 0.914062 31.8663 0.914062 31.6701V31.0422C0.914062 30.7283 1.16 30.532 1.40594 30.532H1.53536C1.71663 30.532 2.07902 30.3489 2.20851 30.1526L9.17256 19.9493C9.23731 19.8315 9.23731 19.6876 9.17256 19.5699L1.04348 7.65291Z" fill="black"/>
<path fill-rule="evenodd" clip-rule="evenodd" d="M75.8755 9.85006C75.8755 10.5434 76.4963 11.1059 77.2345 11.1059C77.9331 11.119 78.5286 10.5695 78.5935 9.85006C78.5935 9.15677 77.972 8.59424 77.2345 8.59424C76.4963 8.59424 75.8755 9.15677 75.8755 9.85006ZM36.3687 16.2076V24.004L38.8281 24.1349V16.2729C38.8281 14.507 37.7154 12.8719 35.1134 12.8719C33.4433 12.8719 32.3818 13.369 31.6443 14.0622C30.9709 13.369 29.9742 12.8719 28.24 12.8719C26.3762 12.8719 25.198 13.0681 24.1494 13.6305V24.0694H26.6347V14.7032C27.1266 14.5201 27.5018 14.3893 28.24 14.3893C29.599 14.3893 30.2853 15.0826 30.2853 16.1553V24.0171H32.7707V15.1479C33.2626 14.6378 33.8322 14.3893 34.5697 14.3893C35.8127 14.3893 36.3687 15.2657 36.3687 16.2076ZM41.3264 28.3993H43.9284L48.9509 13.0026H46.66L44.6147 20.1058C44.3684 20.9822 44.3036 21.6755 44.3036 21.6755H44.2388C44.2388 21.6755 44.2388 20.9822 43.9932 20.1058L42.1294 13.0026H39.5274L43.1261 24.004L41.3264 28.3993ZM72.2638 24.004L70.2185 20.0403H70.1537L68.0436 24.004H65.5582L68.9114 18.2875L65.8694 12.9373H68.4714L70.2704 16.5215H70.3352L72.2509 12.9373H74.5417L71.4486 18.0913L74.8529 23.9386C74.9306 24.004 72.2638 24.004 72.2638 24.004ZM75.9915 24.004V13.0026H78.4768V24.004H75.9915ZM56.3291 20.9168C56.3291 22.9968 57.8178 24.2525 60.795 24.2525C61.8215 24.2525 63.0244 24.1655 63.8196 24.108L63.8196 24.108L63.8196 24.108C64.3226 24.0717 64.6624 24.0471 64.6911 24.0638V24.0694C64.6938 24.0672 64.6937 24.0653 64.6911 24.0638V16.6524C64.6911 13.8267 62.8921 12.8849 60.6653 12.8849C58.983 12.8849 57.3129 13.0681 57.3129 13.0681V14.6378C57.3129 14.6378 59.1767 14.4547 60.2253 14.4547C61.5332 14.4547 62.4003 14.8209 62.4003 16.2729V16.8355C59.0608 17.1494 56.3291 18.0259 56.3291 20.9168ZM62.478 17.9605C60.1864 18.209 58.7626 18.7191 58.7626 20.7337C58.7626 22.1857 59.6297 22.8136 61.0542 22.8136C61.6102 22.8136 62.5428 22.6828 62.5428 22.6828L62.478 17.9605ZM55.3454 22.4342H55.4102C55.4621 22.7482 55.7076 23.4415 56.0965 23.7554C55.7854 23.9516 54.9831 24.1349 54.3616 24.1349C52.2515 24.1349 51.3844 22.6828 51.3844 21.1784V14.6378H49.831L50.3229 13.0681H51.3714V10.6219L53.8568 9.92852V13.0681H56.0836V14.6378H53.8568V21.0477C53.8568 21.9372 54.1672 22.4997 55.035 22.4997C55.0998 22.4997 55.1639 22.4997 55.3454 22.4342Z" fill="black"/>
</svg>
