<svg width="115" height="15" viewBox="0 0 115 15" fill="none" xmlns="http://www.w3.org/2000/svg">
<path fill-rule="evenodd" clip-rule="evenodd" d="M37.6826 2.83585H30.7588L30.9598 0.772705H27.6374L27.0497 9.71302C27.0193 10.2873 27.0807 10.8474 27.2506 11.3862C27.4053 11.9038 27.6988 12.3859 28.0856 12.79C28.5178 13.2154 29.0434 13.5345 29.6311 13.7472C30.3728 13.9953 31.1607 14.1087 31.9487 14.0946C32.7373 14.1087 33.5253 13.9953 34.267 13.7472C34.885 13.5345 35.4417 13.2012 35.9202 12.79C36.3532 12.3859 36.693 11.918 36.9098 11.3862C37.126 10.8616 37.2648 10.3015 37.2959 9.74138L37.4657 6.59348H34.3754L34.2207 9.4436C34.1896 10.1384 34.0046 10.6702 33.6641 11.0317C33.3243 11.4004 32.8299 11.5918 32.1807 11.5918C31.5005 11.5918 31.0219 11.4004 30.7588 11.0317C30.4805 10.656 30.3728 10.1242 30.4039 9.4436L30.6511 4.92736H37.5893L37.6826 2.83585ZM81.2466 2.83585H88.1697L88.0461 4.92736H81.123L80.8758 9.4436C80.8447 10.1242 80.9531 10.656 81.2315 11.0317C81.4939 11.4004 81.9731 11.5918 82.6534 11.5918C83.3018 11.5918 83.7963 11.4004 84.1367 11.0317C84.4765 10.6702 84.6623 10.1384 84.6926 9.4436L84.8473 6.59348H87.9536L87.7837 9.74138C87.7526 10.3015 87.6138 10.8616 87.3977 11.3862C87.1808 11.918 86.841 12.3859 86.408 12.79C85.9295 13.2012 85.3729 13.5345 84.7548 13.7472C84.0131 13.9953 83.2252 14.1087 82.4365 14.0946C81.6486 14.1229 80.8447 14.0095 80.103 13.7472C79.516 13.5345 78.9905 13.2154 78.5575 12.79C78.1715 12.3859 77.878 11.9038 77.7233 11.3862C77.5534 10.8474 77.4912 10.2873 77.5223 9.71302L78.1252 0.772705H81.4476L81.2466 2.83585ZM112.68 3.67246C113.654 4.42398 114.148 5.4591 114.194 6.74946L110.795 6.7211C110.764 6.21063 110.501 5.72143 110.083 5.39529C109.635 5.06207 109.094 4.899 108.523 4.91318C108.183 4.91318 107.843 4.9699 107.518 5.07625C107.194 5.17551 106.9 5.36693 106.668 5.6009C106.405 5.89867 106.205 6.22481 106.065 6.59348C105.88 7.07559 105.787 7.57897 105.772 8.08944C105.71 9.28054 105.911 10.181 106.375 10.7552C106.838 11.3295 107.395 11.6273 108.044 11.6273C108.646 11.6415 109.234 11.4784 109.728 11.1523C110.207 10.8474 110.531 10.344 110.609 9.7981H113.978C113.855 10.4149 113.607 11.0176 113.252 11.5493C112.896 12.0669 112.448 12.5206 111.922 12.8893C111.366 13.2721 110.748 13.5699 110.099 13.7613C109.404 13.9669 108.677 14.052 107.951 14.052C107.163 14.0662 106.375 13.9315 105.617 13.6833C104.226 13.2012 103.145 12.1094 102.743 10.741C102.496 9.91863 102.403 9.04657 102.465 8.18161C102.496 7.30956 102.681 6.45877 103.037 5.65053C103.624 4.31055 104.798 3.28961 106.266 2.87839C107.054 2.64443 107.873 2.5239 108.708 2.54517C110.393 2.54517 111.706 2.92802 112.68 3.67246ZM97.5354 13.7897L98.1376 2.83585H101.461L100.858 13.7897H97.5354ZM96.9477 5.53L97.1024 2.57353H96.6542C96.3291 2.57353 96.0178 2.58652 95.6931 2.60007L95.6494 2.60189C95.3097 2.63025 94.9851 2.68697 94.6764 2.8075C94.3359 2.92802 94.0273 3.084 93.7338 3.28961C93.3933 3.54484 93.0846 3.82135 92.8374 4.16166L92.914 2.83585H89.7774L89.1745 13.7897H92.4969L92.8063 8.08944C92.8988 6.32407 93.981 5.4591 96.0362 5.4591C96.3297 5.44492 96.6391 5.47328 96.9477 5.53ZM76.0852 6.18936C76.1315 5.66471 76.0541 5.11879 75.8532 4.61541C75.6833 4.17584 75.405 3.79299 75.05 3.46685C74.6785 3.16199 74.2462 2.92802 73.7828 2.77914C73.2414 2.61607 72.6855 2.5239 72.1289 2.54517C71.1089 2.54517 70.2747 2.70115 69.5944 3.02728C68.9301 3.35341 68.3583 3.83553 67.9564 4.42398L68.0489 2.82167H64.8653L64.2631 13.7755H67.5855L67.9253 7.50098C68.0185 5.82778 68.9301 4.98408 70.6766 4.98408C71.4645 4.98408 72.0204 5.13297 72.3298 5.42365C72.6392 5.72143 72.7628 6.29571 72.7158 7.14649L72.345 13.7755H75.6681L76.0852 6.18936ZM57.6176 2.54517C61.574 2.54517 63.4441 4.72176 63.1969 9.07493L54.4803 9.06075C54.4962 9.869 54.7275 10.5354 55.2068 11.0176C55.6709 11.5068 56.3193 11.7549 57.1543 11.7549C57.6639 11.7691 58.1743 11.6556 58.6225 11.4359C59.0244 11.2586 59.333 10.9467 59.5029 10.5638H62.9338C62.5318 11.6415 61.7591 12.549 60.7398 13.1516C59.6728 13.7755 58.4526 14.0946 57.2005 14.0662C52.9818 14.0662 50.988 12.0952 51.2042 8.1178C51.2974 6.41623 51.8996 5.06207 53.0129 4.05531C54.1254 3.04146 55.655 2.54517 57.6176 2.54517ZM59.8586 7.25284H54.6972C54.8049 6.48713 55.1143 5.89867 55.6239 5.47328C56.1184 5.06207 56.7523 4.8352 57.4015 4.85646C58.0347 4.8352 58.6528 5.04789 59.1321 5.44492C59.6265 5.82778 59.8738 6.44459 59.8586 7.25284ZM50.4936 6.74946H47.1401C47.109 6.23899 46.8466 5.74979 46.3984 5.40947C45.9503 5.07625 45.4095 4.91318 44.8377 4.92736C44.4972 4.92736 44.1575 4.98408 43.8329 5.09043C43.5083 5.18969 43.2149 5.38111 42.9828 5.61508C42.7204 5.91285 42.5194 6.23899 42.3799 6.60766C42.1949 7.08977 42.1023 7.59315 42.0864 8.10362C42.025 9.30181 42.2259 10.1951 42.6893 10.7694C43.1527 11.3437 43.7093 11.6415 44.3585 11.6415C44.9613 11.6556 45.5483 11.4784 46.0428 11.1664C46.5221 10.8616 46.8466 10.3582 46.924 9.81228H50.2775C50.1538 10.4291 49.9066 11.0176 49.5509 11.5493C49.1953 12.0669 48.7471 12.5206 48.2216 12.8893C47.6657 13.2721 47.0476 13.5699 46.3984 13.7613C45.703 13.9669 44.9765 14.052 44.25 14.052C43.4621 14.0662 42.6741 13.9528 41.9165 13.6833C40.5257 13.2012 39.4443 12.1094 39.0424 10.741C38.7951 9.91863 38.7019 9.04657 38.764 8.18161C38.7951 7.30956 38.9802 6.45877 39.3358 5.65053C39.9228 4.31055 41.1127 3.28961 42.5657 2.87839C43.3536 2.64443 44.1727 2.5239 45.0076 2.54517C46.6919 2.54517 48.0054 2.92802 48.9791 3.67246C49.9529 4.42398 50.4473 5.4591 50.4936 6.74946ZM20.2039 2.54517C24.1603 2.54517 26.0145 4.72176 25.7824 9.07493L17.0825 9.06075C17.0977 9.869 17.3297 10.5354 17.8083 11.0176C18.2724 11.5068 18.9215 11.7549 19.7557 11.7549C20.2502 11.7691 20.7605 11.6556 21.2087 11.4359C21.6099 11.2586 21.9193 10.9467 22.0892 10.5638H25.52C25.1181 11.6415 24.3453 12.549 23.3254 13.1516C22.2591 13.7755 21.0381 14.0946 19.7868 14.0662C15.5681 14.0662 13.5743 12.0952 13.7905 8.1178C13.883 6.41623 14.4859 5.07625 15.5984 4.05531C16.7117 3.04146 18.2413 2.54517 20.2039 2.54517ZM22.429 7.25284H17.2676C17.3912 6.48713 17.7006 5.89867 18.195 5.47328C18.6895 5.06207 19.3227 4.8352 19.9719 4.85646C20.6059 4.8352 21.2239 5.04789 21.7032 5.44492C22.1976 5.82778 22.4449 6.44459 22.429 7.25284ZM12.3071 4.61541C12.5081 5.11879 12.5854 5.66471 12.5392 6.18936L12.1062 13.7897H8.78377L9.15461 7.16067C9.20087 6.30989 9.07726 5.73561 8.76786 5.44492C8.45919 5.14715 7.90257 4.99826 7.11462 4.99826C5.38403 4.99826 4.47175 5.84196 4.36404 7.51516L4.02356 13.7897H0.701172L1.30406 2.82167H4.50283L4.4103 4.42398C4.81223 3.83553 5.38403 3.35341 6.04836 3.02728C6.72788 2.70115 7.56281 2.54517 8.5828 2.54517C9.1387 2.5239 9.69533 2.61607 10.236 2.77914C10.7001 2.92802 11.1324 3.16199 11.5033 3.46685C11.8589 3.79299 12.1372 4.17584 12.3071 4.61541Z" fill="black"/>
</svg>
