<svg width="102" height="41" viewBox="0 0 102 41" fill="none" xmlns="http://www.w3.org/2000/svg">
<path fill-rule="evenodd" clip-rule="evenodd" d="M5.62574 30.3369C2.72465 30.3369 0.625977 32.5963 0.625977 35.2833C0.625977 37.9702 2.72465 40.1075 5.62574 40.1075C8.52682 40.1075 10.6255 37.9092 10.6255 35.2222C10.6255 32.5353 8.52682 30.3369 5.62574 30.3369ZM5.62574 31.8636C7.53924 31.8636 8.89716 33.3902 8.89716 35.2833C8.89716 37.1764 7.60097 38.6419 5.68746 38.6419C3.77395 38.6419 2.41603 37.1153 2.41603 35.2833C2.41603 33.3902 3.71223 31.8636 5.62574 31.8636Z" fill="black"/>
<path d="M13.8965 36.0158V30.5198H15.563V35.8937C15.563 37.6646 16.4889 38.5805 17.9703 38.5805C19.4518 38.5805 20.3776 37.6646 20.3776 35.9547V30.4587H22.0442V35.8325C22.0442 38.7027 20.4393 40.1072 17.9086 40.1072C15.5013 40.1683 13.8965 38.7637 13.8965 36.0158Z" fill="black"/>
<path d="M28.1554 32.108H25.1309V30.5813H32.9083V32.108H29.8837V40.0466H28.1554V32.108Z" fill="black"/>
<path d="M36.0566 30.52H43.1549V32.0467H37.7232V34.6115H42.5376V36.1381H37.7232V39.9854H36.0566V30.52Z" fill="black"/>
<path d="M46.4883 30.52H48.1548V40.0464H46.4883V30.52Z" fill="black"/>
<path d="M53.5867 32.108H50.5615V30.5813H58.2777V32.108H55.2532V40.0466H53.525V32.108H53.5867Z" fill="black"/>
<path d="M63.7706 32.108H60.7461V30.5813H68.5233V32.108H65.4988V40.0466H63.8323L63.7706 32.108Z" fill="black"/>
<path d="M71.6719 30.52H78.7701V31.9856H73.3384V34.4893H78.1529V35.9549H73.3384V38.5197H78.8318V39.9854H71.6719V30.52Z" fill="black"/>
<path fill-rule="evenodd" clip-rule="evenodd" d="M86.4865 30.52H82.2275L82.2893 40.0464H83.9558V36.7488H86.0544L88.3999 40.0464H90.3751L87.7827 36.4435C89.1406 36.0771 90.0664 35.1611 90.0664 33.5734C90.0664 32.7184 89.7578 31.9856 89.264 31.4971C88.6468 30.8864 87.6592 30.52 86.4865 30.52ZM88.3382 33.6344C88.3382 34.6115 87.5358 35.2221 86.363 35.2221H83.8941V32.0467H86.363C87.5975 32.0467 88.3382 32.5963 88.3382 33.6344Z" fill="black"/>
<path d="M95.9916 36.2603L92.1641 30.52H94.1392L96.8558 34.7336L99.5716 30.52H101.485L97.6582 36.2603V40.0464H95.9292L95.9916 36.2603Z" fill="black"/>
<path d="M63.709 24.7186C63.6473 24.3522 63.3386 24.1079 63.03 24.1079C62.9683 24.1079 62.9066 24.1079 62.7831 24.169C62.7831 24.169 61.8573 24.5965 61.3018 24.0469C60.4376 23.0087 59.7587 21.2378 59.5118 19.5279C59.5735 19.4669 59.5735 19.4058 59.5735 19.3447C59.8821 18.7951 60.129 17.9402 60.2525 17.0242C60.3759 17.2074 60.4376 17.3906 60.5611 17.5738C60.5611 17.5738 60.5611 17.5738 60.5611 17.5128C60.808 16.7188 60.7462 15.925 60.3759 15.2533C60.6228 15.5587 61.3635 15.4975 61.3635 15.4975C60.0056 14.2152 60.6845 13.177 60.6845 13.177C60.8697 12.5664 61.919 12.8717 61.919 12.8717C61.6721 12.3221 60.9931 12.2611 60.8697 12.2611C62.2276 12.1389 62.7214 12.9938 62.7214 12.9938C63.2769 11.8947 61.9807 11.284 61.9807 11.284C61.9807 11.284 62.3511 10.4901 59.8821 9.32987C58.7094 8.78026 58.2156 8.2917 57.9687 7.86424C57.9687 7.8032 57.907 7.8032 57.8452 7.8032C57.7835 7.8032 57.7835 7.86424 57.7835 7.86424C57.8452 8.4749 58.0304 9.57412 58.8945 10.2458C58.8945 10.2458 58.2156 9.87941 57.907 9.57412C57.907 9.57412 57.4132 10.0626 56.9194 10.8565C56.8577 10.9786 56.7959 11.1008 56.7342 11.1618C54.9442 10.9176 54.8825 7.19254 54.8825 7.19254C54.8208 6.45973 54.2035 6.15437 54.2035 6.15437L48.0929 2.18507C47.4139 1.75762 46.5498 1.02481 46.1177 0.291992C45.9936 0.719444 45.9319 1.14697 45.9319 1.57442C45.9936 3.03998 47.1053 4.44449 48.3398 5.1773C47.1053 4.74985 46.0553 3.95599 45.3146 2.91789C45.2529 3.34534 45.1912 3.77279 45.3146 4.26136C45.685 6.33757 47.6608 7.9864 49.7594 7.86424C48.2781 7.9864 46.735 7.49784 45.4998 6.52077C45.5615 6.94823 45.685 7.43679 45.8701 7.86424C46.6733 9.51301 48.4015 10.4901 50.0681 10.368C49.1422 10.6122 48.1546 10.5512 47.2288 10.3069C47.4757 10.7344 47.7843 11.1008 48.1546 11.4061C48.8953 12.0779 49.8829 12.4443 50.747 12.4443C50.3149 12.9328 48.2163 12.4443 48.2163 12.4443C46.7967 12.1999 45.4381 12.3831 44.2036 13.7266L44.1419 13.8488C43.895 13.9098 43.6481 13.9709 43.4012 13.9709C42.9691 13.9098 42.7222 13.7266 42.4753 13.4213C42.0433 12.9328 42.0433 12.2611 42.5371 11.4672C43.2777 10.1237 42.9074 9.20771 42.4753 8.71915C42.0433 8.23065 41.4878 7.9864 40.9322 7.86424C40.6236 7.62 40.2533 7.49784 39.8212 7.49784C39.2657 7.49784 38.7719 7.74208 38.3398 8.16961C38.7719 8.59706 39.2657 8.84131 39.8212 8.84131C40.1916 8.84131 40.5619 8.71915 40.8705 8.53594C41.3026 8.59706 41.6112 8.78026 41.9198 9.08555C42.3519 9.57412 42.3519 10.2458 41.8581 11.0397C41.1174 12.3831 41.4878 13.2992 41.9198 13.7877C42.2902 14.2152 42.9691 14.5205 43.5246 14.5816C43.1543 15.2533 43.0308 15.9861 42.9074 16.5357C42.9074 16.6578 42.8457 16.841 42.8457 16.9632C42.7839 17.2074 42.7222 17.5128 42.5988 17.6959C42.2902 18.1845 41.7346 18.3677 41.2409 18.2455C41.4878 18.5509 41.8581 18.7341 42.1667 18.8562C42.105 18.9173 42.0433 18.9783 41.9815 19.0394C41.4878 19.4058 40.9322 19.4058 40.5002 19.1615C40.6853 19.5279 40.994 19.7722 41.2409 19.9554C40.8088 20.3218 40.5002 20.505 40.5002 20.505C40.5002 20.505 40.6236 21.8485 39.9447 23.1919C39.9447 23.1919 40.6236 24.169 41.0557 25.085H43.5864C43.8332 25.085 43.9567 24.9018 43.9567 24.7186C44.0184 24.7797 44.0801 24.9018 44.0801 25.0239C44.0801 25.085 44.0801 25.085 44.0801 25.1461C44.2653 25.0239 44.3888 24.8407 44.327 24.6575C44.2653 24.2911 43.9567 24.0469 43.6481 24.0469C43.5864 24.0469 43.5246 24.0469 43.4012 24.1079C43.4012 24.1079 42.2284 24.5354 41.8581 23.7416C41.5495 23.0698 41.7346 21.9706 42.5371 21.5431C43.1543 21.1767 45.5615 20.3829 45.9936 19.6501C46.3646 18.9783 46.7967 17.8791 47.2288 17.5738C47.4757 18.4898 47.9077 20.3829 45.9319 20.9935C45.9319 20.9935 45.9319 22.0927 45.2529 23.3752C45.2529 23.3752 45.9936 24.2911 46.3646 25.2682H48.8953C49.1422 25.2682 49.2656 25.085 49.2656 24.9018C49.3274 24.9629 49.3891 25.085 49.3891 25.2071C49.3891 25.2682 49.3891 25.2682 49.3891 25.3293C49.5743 25.2071 49.6977 25.0239 49.636 24.8407C49.5743 24.4743 49.2656 24.2301 48.957 24.2301C48.8953 24.2301 48.8336 24.2301 48.7101 24.2911C48.7101 24.2911 47.5374 24.7797 47.167 23.9858C46.8584 23.3752 47.0436 22.337 47.9077 21.9095C48.7101 21.5431 50.6236 20.6882 51.1174 20.0776C51.6111 19.4669 51.426 17.3906 51.426 17.3906C51.5494 17.3906 53.1542 18.0013 54.3887 18.8562C54.6356 19.589 54.7591 20.3218 53.5246 20.7493C53.3394 20.8103 53.1542 20.8103 53.0308 20.7493C53.1542 20.8714 53.2777 20.9935 53.4011 21.0546C53.4011 21.5431 53.3394 22.5813 52.7222 23.5584C52.7222 23.5584 53.1542 24.1079 53.5246 24.7186C53.4011 24.7797 53.216 24.7186 53.0308 24.6575C52.9691 24.6575 52.9691 24.5965 52.9073 24.5965C52.9691 24.9018 53.1542 25.1461 53.4629 25.3293C53.5863 25.3903 53.7098 25.4514 53.8949 25.4514H56.3639C56.6108 25.4514 56.7342 25.2682 56.7342 25.085C56.7959 25.1461 56.8577 25.2682 56.8577 25.3903C56.8577 25.4514 56.8577 25.4514 56.8577 25.5125C57.0428 25.3903 57.1663 25.2071 57.1046 25.0239C57.0428 24.6575 56.7342 24.4133 56.4256 24.4133C56.3639 24.4133 56.3021 24.4133 56.1787 24.4743C56.1787 24.4743 55.0677 25.0239 54.6973 24.2301C54.3887 23.5584 54.6356 22.4591 55.4997 22.0317C55.9318 21.8485 56.549 21.6042 57.1663 21.2989C57.3514 21.4821 57.5366 21.6653 57.6601 21.8485C58.0304 22.4591 58.0304 23.1308 57.7835 23.6194C58.0304 23.5584 58.2156 23.4362 58.339 23.314C58.339 23.314 58.339 23.314 58.339 23.3752C58.339 23.3752 59.2032 23.8026 59.8821 24.9018C59.7587 24.9629 59.5735 24.9018 59.4501 24.8407C59.3883 24.8407 59.3883 24.7797 59.3266 24.7797C59.3883 25.085 59.5735 25.3293 59.8821 25.5125C60.0056 25.5735 60.129 25.6346 60.3142 25.6346H62.7831C63.03 25.6346 63.1535 25.4514 63.1535 25.2682C63.2152 25.3293 63.2769 25.4514 63.2769 25.5735C63.2769 25.6346 63.2769 25.6346 63.2769 25.6957C63.5855 25.1461 63.709 24.9629 63.709 24.7186Z" fill="black"/>
</svg>
