<svg width="103" height="29" viewBox="0 0 103 29" fill="none" xmlns="http://www.w3.org/2000/svg">
<path fill-rule="evenodd" clip-rule="evenodd" d="M88.8909 21.8528C88.8909 21.5268 88.8909 21.2001 88.9447 20.9281L90.0203 14.1301C89.8054 14.1301 89.6975 14.1848 89.5902 14.1848C89.3213 14.2389 89.2133 14.2389 89.1061 14.2933C88.9447 14.3477 88.7295 14.3477 88.5681 14.4021C88.4067 13.4233 88.4067 12.4442 88.5681 11.4654C88.7833 11.4654 88.9981 11.4654 89.3213 11.411H90.612C90.9886 10.3775 91.58 9.50752 91.7952 8.31117C92.1183 8.25677 92.5483 8.20238 92.9787 8.14798C93.1939 8.14798 93.3011 8.09359 93.4629 8.09359C93.6239 8.09359 93.7853 8.09359 94.0005 8.03919C94.5384 7.9848 95.1299 7.9848 95.8292 7.9848C95.7754 8.90917 95.6678 10.0515 95.5068 11.411H96.4744C97.9807 11.411 98.5724 11.2478 99.0563 10.8671C99.3252 11.3566 99.4866 11.9006 99.4866 12.4442C99.4866 13.2057 99.2715 13.6953 96.9048 13.7497H96.3672H95.1299L94.0543 20.5477V20.7653V20.9828C94.0543 21.9072 94.4846 22.6688 95.1836 22.6688C96.3134 22.6688 96.5823 21.7988 97.0127 21.7988C98.0341 21.9616 98.6262 22.56 98.6262 22.56C97.8731 24.0283 95.9368 25.3882 93.8929 25.3882C90.7731 25.3334 88.9981 23.9195 88.8909 21.8528ZM85.8787 23.5935C85.2334 24.5719 83.8348 25.225 82.1678 25.225H81.6298C81.4684 25.225 81.307 25.1706 81.1456 25.1162C80.9843 25.0615 80.8232 25.0071 80.6615 24.953C79.9087 24.6266 79.4783 23.8651 79.6935 22.3968L79.7473 22.1248C79.6935 22.288 79.5859 22.3968 79.4783 22.56C79.3169 22.8319 79.1017 23.1039 78.9404 23.3215C78.7255 23.5387 78.5103 23.7563 78.2951 23.9195C78.1872 24.0283 78.08 24.083 77.9724 24.1915C77.7572 24.3547 77.4882 24.5179 77.273 24.6266C76.8427 24.8439 76.3585 25.0615 75.8747 25.1706C75.6595 25.225 75.4443 25.279 75.2291 25.279C75.0139 25.279 74.8529 25.3334 74.6377 25.3334H74.2611H74.1535C74.0997 25.3334 73.9921 25.3334 73.9384 25.279C73.8846 25.279 73.8311 25.279 73.777 25.225C73.7232 25.225 73.6694 25.1706 73.6156 25.1706C73.5621 25.1706 73.508 25.1162 73.4542 25.1162C73.4542 25.1162 73.4004 25.1162 73.4004 25.0615C72.1634 24.5179 71.7872 23.0495 72.1096 21.0916L72.97 15.5444C72.97 15.3812 73.0238 15.218 73.0238 15.1092V14.946C73.0238 14.8372 73.0238 14.7828 73.078 14.674V14.4565V14.2389C73.1318 13.9128 73.1318 13.6409 73.1318 13.3145V13.2057V12.8793V12.7705V12.4442C73.1318 12.1181 73.1318 11.8462 73.078 11.4654C73.1318 11.4654 73.1852 11.411 73.2928 11.411C73.3469 11.411 73.4004 11.411 73.508 11.3566H73.6156H73.777H73.8846H74.0459H74.1535H74.3146H74.4225H74.5836H74.7449H74.9067H75.0677H75.2291H75.3908H75.5519H75.7133H75.9285H76.0899H76.305H76.4664H76.6816H76.8427H77.0578H77.2196H77.4347H77.5958H77.8648H78.0262H78.4024C78.4565 12.553 78.1872 14.1848 77.9724 15.7072L77.2196 20.3845C77.2196 20.4933 77.1116 21.3092 77.1116 21.5268C77.1116 21.7444 77.1116 22.0164 77.1654 22.2336C77.1654 22.3424 77.2196 22.4512 77.273 22.6144C77.3268 22.6688 77.3806 22.7775 77.4347 22.7775H77.4882C77.6496 22.7775 77.9182 22.6144 78.2413 22.288C78.7255 21.7988 79.1017 21.2001 79.4245 20.6021C79.5321 20.3301 79.6935 20.1125 79.8011 19.7862C79.9087 19.5145 80.0163 19.1882 80.1239 18.9162C80.1773 18.753 80.2311 18.5898 80.2311 18.4266L80.608 15.7619C80.6615 15.3812 80.7153 15.0548 80.7691 14.7284C80.8232 14.2389 80.8767 13.7497 80.9305 13.2057C80.9843 12.7162 81.0384 12.1722 81.0384 11.5742C81.6836 11.5198 84.2117 11.1934 86.1476 11.2478C86.0938 12.7162 85.9328 14.1848 85.6635 15.6528L84.642 22.1792C84.642 23.1039 85.0721 23.5935 85.8787 23.5935ZM71.1951 6.1357C71.0879 6.89724 70.9803 7.65843 70.8727 8.41962L70.2809 12.3354L68.775 22.0164C68.775 22.1248 68.7212 22.2336 68.7212 22.3424V22.3968V22.6688V22.7228C68.7212 22.7775 68.775 22.8319 68.775 22.8863V22.9407C68.775 22.9948 68.8288 23.0495 68.8822 23.1039L68.9364 23.1583C68.9902 23.2124 68.9902 23.2124 69.044 23.2668L69.0974 23.3215C69.3126 23.4843 69.5816 23.5387 69.8505 23.5387C69.6354 23.8651 69.3664 24.1371 69.044 24.3003C68.9902 24.3003 68.9902 24.3547 68.9364 24.3547C68.8822 24.4091 68.775 24.4635 68.7212 24.5179C68.6674 24.5719 68.6136 24.5719 68.5598 24.5719C68.506 24.6266 68.3984 24.6266 68.3446 24.681C68.237 24.7354 68.0756 24.7895 67.9146 24.8439C67.8604 24.8439 67.8066 24.8986 67.6994 24.8986C67.5915 24.953 67.4842 24.953 67.3766 24.953C67.3225 24.953 67.269 24.953 67.1614 25.0071C67.0535 25.0071 66.9463 25.0615 66.7849 25.0615H66.6235H66.0859H65.8707H65.7627H65.6017H65.4938H65.3865H65.2786H65.1713C65.1175 25.0615 65.0637 25.0615 65.0637 25.0071C65.0099 25.0071 65.0099 25.0071 64.9561 24.953C64.9023 24.953 64.8485 24.8986 64.8485 24.8986C64.8485 24.8986 64.7948 24.8986 64.7948 24.8439C64.741 24.8439 64.6872 24.7895 64.6334 24.7895H64.5796C64.3644 24.681 64.1492 24.5179 63.9878 24.3003V24.2459C63.934 24.1915 63.934 24.1371 63.8806 24.083C63.8806 24.083 63.8806 24.0283 63.8268 24.0283C63.773 23.9739 63.773 23.9195 63.773 23.8651V23.8107C63.773 23.7563 63.7188 23.7019 63.7188 23.5935V23.5387C63.7188 23.4843 63.6654 23.3759 63.6654 23.3215V23.2668V22.9948C63.6654 22.7228 63.6654 22.5056 63.7188 22.2336L65.9245 8.36556C65.9779 8.20238 65.9779 8.03919 65.9779 7.82161C66.0859 7.16887 66.1397 6.57052 66.1931 5.91812V4.34101C66.3007 4.34101 66.3548 4.28661 66.4621 4.28661C66.5697 4.28661 66.6773 4.23222 66.7849 4.23222C66.9463 4.17782 67.1614 4.17782 67.3766 4.12343C67.4842 4.12343 67.5915 4.12343 67.6994 4.06903C68.0218 4.01463 68.3446 4.01463 68.7212 3.96024C68.9902 3.96024 69.2053 3.90584 69.4743 3.90584C70.1195 3.85145 70.8189 3.85145 71.4641 3.85145C71.4641 4.28661 71.4103 4.83056 71.4103 5.37417C71.2492 5.75494 71.1951 5.97252 71.1951 6.1357ZM60.5994 22.0704C60.1152 22.7228 59.5238 23.2668 58.8786 23.7019C58.7706 23.8107 58.6092 23.8651 58.5017 23.9739C58.5017 23.9739 58.4482 23.9739 58.4482 24.0283C58.3403 24.083 58.233 24.1915 58.1254 24.2459C58.1254 24.2459 58.0713 24.2459 58.0713 24.3003C57.964 24.3547 57.8564 24.4091 57.6951 24.4635C57.6951 24.4635 57.6413 24.4635 57.6413 24.5179C57.4799 24.5719 57.3723 24.6266 57.2109 24.681C56.9419 24.7895 56.6195 24.8986 56.2967 25.0071C56.2426 25.0071 56.2426 25.0071 56.1891 25.0615C56.0815 25.1162 55.9739 25.1162 55.8663 25.1706C55.8125 25.1706 55.7588 25.1706 55.705 25.225C55.5974 25.225 55.4898 25.279 55.3822 25.279C55.3284 25.279 55.2749 25.279 55.2208 25.3334C55.1132 25.3334 55.0059 25.3882 54.898 25.3882H54.7366H54.4139H54.2528H53.7686H53.1769H52.962C52.8541 25.3882 52.6931 25.3334 52.5855 25.3334C52.5317 25.3334 52.4241 25.279 52.3703 25.279C52.2627 25.279 52.1548 25.225 52.0475 25.225C51.9937 25.225 51.8861 25.1706 51.8323 25.1706C51.7247 25.1162 51.6171 25.1162 51.5634 25.0615C51.5096 25.0071 51.4023 25.0071 51.3482 24.953C51.2406 24.8986 51.1871 24.8986 51.0795 24.8439C51.0257 24.7895 50.9181 24.7895 50.864 24.7354C50.8106 24.681 50.703 24.6266 50.6492 24.5719C50.5954 24.5179 50.5416 24.4635 50.434 24.4635C50.3802 24.4091 50.2726 24.3547 50.2188 24.3003C50.165 24.2459 50.1112 24.1915 50.0574 24.1371C50.0036 24.083 49.9498 24.0283 49.896 23.9739C49.8422 23.9195 49.7884 23.8651 49.7346 23.8107C49.6808 23.7563 49.627 23.7019 49.5732 23.6475C49.5194 23.5935 49.466 23.5387 49.4119 23.4299C49.3584 23.3759 49.3043 23.3215 49.2508 23.2124C49.1967 23.1583 49.1432 23.0495 49.1432 22.9948C49.0894 22.9407 49.0894 22.8319 49.0356 22.7775C48.9818 22.7228 48.9818 22.6144 48.928 22.56C48.8742 22.5056 48.8742 22.3968 48.8204 22.3424C48.7666 22.2336 48.7666 22.1792 48.7128 22.0704C48.7128 22.0164 48.6591 21.9072 48.6591 21.8528C48.6591 21.7444 48.6053 21.6896 48.6053 21.5809C48.6053 21.5268 48.5515 21.4177 48.5515 21.3633C48.4977 21.0916 48.4439 20.8197 48.4439 20.5477V19.8949C48.4439 16.8495 49.8422 14.2933 51.9937 12.7705C52.3703 12.4989 52.6931 12.281 53.1231 12.1181C53.5 11.955 53.93 11.7918 54.3066 11.6286H54.3604C54.5756 11.5742 54.7366 11.5198 54.9518 11.4654H55.0059C55.2208 11.411 55.3822 11.411 55.5974 11.3566H55.6512C55.8663 11.3022 56.0815 11.3022 56.2426 11.3022H56.4043H57.0495H57.5875H57.7489C57.9102 11.3022 58.0178 11.3566 58.1792 11.3566H58.2865C58.4482 11.411 58.6092 11.411 58.7706 11.4654C58.8244 11.4654 58.8786 11.5198 58.932 11.5198C59.0396 11.5742 59.1475 11.5742 59.2548 11.6286C59.3086 11.6286 59.3624 11.683 59.4162 11.683C59.5238 11.7374 59.6852 11.7918 59.7928 11.8462C59.8462 11.8462 59.9004 11.9006 59.9541 11.955C60.0079 12.0094 60.1152 12.0634 60.1693 12.1181C60.2231 12.1722 60.2769 12.1722 60.3304 12.2269C60.3842 12.281 60.4383 12.3354 60.5456 12.3898C60.6532 12.4442 60.7073 12.553 60.8145 12.6077C60.8683 12.6618 60.9221 12.7162 60.9759 12.7705C61.0297 12.8249 61.0835 12.8793 61.1373 12.9337C61.1911 12.9881 61.1911 12.9881 61.2449 13.0425C61.3525 13.2057 61.5139 13.3689 61.6215 13.5321C61.6749 13.6405 61.7291 13.6953 61.7829 13.8041C61.7829 13.8585 61.8367 13.8585 61.8367 13.9128C62.267 14.8372 62.536 15.8163 62.4822 16.8495C62.4281 18.5898 61.7829 20.4933 60.5994 22.0704ZM43.8719 22.0164C43.3881 22.8319 42.9577 23.7019 42.6349 24.6266C41.667 25.1162 40.591 25.225 39.5155 25.225C38.6009 25.225 37.7405 24.7895 37.3102 22.3968L35.9656 15.5988C35.6966 14.2389 35.2663 12.8793 34.7283 11.5742C35.2125 11.4654 35.6966 11.3566 36.1805 11.3022C36.2884 11.3022 36.396 11.2478 36.5036 11.2478H36.557C36.6646 11.2478 36.7722 11.2478 36.9336 11.1934H36.9874C37.2564 11.1934 37.5254 11.139 37.8481 11.139H37.9019H38.2785H38.3861H38.7085H38.8699H39.1927H39.3541H39.8382C40.0534 11.5742 40.2683 12.0094 40.4296 12.4442C40.4834 12.6077 40.5372 12.7162 40.591 12.8793C40.6986 13.2057 40.7524 13.5321 40.8062 13.8585L41.7204 20.0581C42.4736 18.5898 43.1729 17.0671 43.8185 15.5444C44.2485 14.5108 44.625 13.4777 44.894 12.3898C45.0016 12.0094 45.0554 11.683 45.163 11.3022C45.4858 11.2478 45.8082 11.2478 46.131 11.2478H46.6689H47.0993H47.8521H48.0135H48.928H49.1432C49.0356 12.1722 48.8204 13.0425 48.4439 13.9128C47.1531 16.6863 45.5396 19.351 43.8719 22.0164ZM27.5752 19.4057C27.36 19.4057 27.1448 19.4601 26.9834 19.4601H26.8758H26.1765H26.1227V19.7862C26.2303 21.3092 26.8758 22.6144 28.2742 22.6144H28.5969C29.9415 22.4512 30.7484 21.4724 31.4474 21.4724C31.7702 21.5268 32.093 21.6352 32.362 21.7988L33.061 22.2336C32.5768 22.9407 31.9854 23.5387 31.2323 23.9739C29.8339 24.8986 28.2204 25.3334 26.553 25.3334C23.0032 25.3334 20.8517 23.3215 20.6903 20.1125V19.5686C20.6903 15.49 23.326 11.0302 29.1884 11.0302C30.0491 11.0302 30.9098 11.139 31.6626 11.411C33.061 11.9006 33.8679 12.9337 33.8679 14.2933C33.9217 15.9248 32.8999 18.9162 27.5752 19.4057ZM19.8837 10.7039C19.7223 13.0969 18.2164 15.0548 15.9035 16.3059L18.0012 21.9072C18.5926 23.4299 18.9692 24.0283 19.6147 24.5179C19.4533 24.6266 19.2919 24.681 19.1306 24.7354C18.1088 25.0615 16.9791 25.279 15.9035 25.225C14.8279 25.225 13.3754 24.953 12.4612 22.288L10.9012 17.7195H9.34141L8.64241 22.0704C8.53481 22.56 8.48102 23.0495 8.48102 23.5387V23.6475C8.48102 23.9195 8.53481 24.1915 8.64241 24.4635C7.45924 25.0071 5.84536 25.1706 4.87738 25.1706C4.07044 25.1706 3.31763 24.8986 3.26384 23.4843C3.26384 23.1039 3.31763 22.7228 3.37143 22.3424L5.36154 9.39873C5.52293 8.41962 5.63018 7.38645 5.63018 6.40768V5.37417C6.27573 5.21099 8.58861 4.93935 10.6863 4.93935H11.0629H12.9992C14.3972 4.88461 15.7421 5.21099 17.0329 5.75494C17.3556 5.91812 17.7322 6.1357 18.0012 6.35329C18.2698 6.57052 18.5391 6.8425 18.8078 7.11447C19.1306 7.54964 19.3995 7.9848 19.6147 8.52841C19.7761 9.07236 19.8837 9.61631 19.8837 10.2147V10.7039ZM97.3889 18.6986L97.6579 16.8495C98.8414 16.7407 99.7556 16.5235 100.455 16.0339C101.315 15.49 102.391 14.4565 102.391 12.4442C102.391 11.3566 102.122 10.3234 101.638 9.39873C101.1 8.41962 100.078 7.82161 99.0025 7.82161H98.8414C98.7873 6.1901 97.4427 4.93935 95.8292 4.88461C94.3232 4.88461 92.817 4.9934 91.3652 5.21099C90.0744 5.42857 89.0523 6.62526 88.8371 7.9304C88.8371 7.9848 85.3945 7.9304 83.1357 7.9304C81.3608 7.9304 80.4463 8.80038 80.4463 8.80038C80.4463 8.80038 79.5859 7.65843 77.273 7.9304C76.1436 7.9848 75.0677 8.14798 73.9384 8.36557C74.1535 6.95129 74.3146 5.53736 74.3687 4.12343V4.01463C74.3687 2.32873 73.0238 0.96919 71.3565 0.914795C69.1512 0.914795 66.6235 1.24082 65.3327 1.5128C63.934 1.89356 62.966 3.19871 63.0198 4.66738C63.0736 5.97252 62.4822 9.88829 62.4822 9.88829C61.0835 8.69159 59.201 8.03919 57.0495 8.03919C55.1132 8.03919 53.1769 8.47436 51.4558 9.39873C50.864 8.74599 50.0036 8.31117 49.1432 8.36557C47.4221 8.36557 46.131 8.36557 44.894 8.47436C43.926 8.52841 43.0653 9.07236 42.5273 9.94268C42.4736 9.88829 42.4735 9.83389 42.4198 9.7795C41.8821 8.80038 40.86 8.20238 39.7844 8.20238C37.5253 8.20238 33.5989 8.85478 33.4375 8.96357C32.093 8.36557 30.6408 8.03919 29.1349 8.09359C26.9296 8.03919 24.7781 8.6372 22.9494 9.7795C22.6266 5.15659 18.7002 2.00236 13.1064 2.00236C13.1064 2.00236 6.27573 2.27433 5.03876 2.54631C3.58627 2.87268 2.56449 4.23222 2.67208 5.70054C2.67208 6.73371 2.61829 7.82161 2.4031 8.96357L0.412997 21.9072C0.25195 22.6688 -0.124621 25.0071 1.32753 26.7477C1.91928 27.4545 2.99486 28.2704 4.87738 28.2704C5.73777 28.2704 8.05065 28.1616 9.93317 27.2913C10.4173 27.0737 10.8477 26.6933 11.1701 26.2582C12.1923 27.4545 13.6982 28.3248 15.9035 28.3248C17.8398 28.3248 19.7223 27.8353 21.4434 26.9653C23.0032 27.8897 24.7781 28.3792 26.6068 28.3248C29.8877 28.3248 32.9534 27.0197 34.8897 24.7895C35.9656 27.5633 37.9557 28.2157 39.5693 28.2157C40.9138 28.2157 42.5273 28.0529 44.1409 27.2373C45.4858 26.5845 46.0772 24.3547 46.3462 23.8651C47.6911 26.5845 50.3802 28.2704 53.7686 28.2704C56.4578 28.2704 59.0934 27.4001 61.2449 25.6602C61.4063 25.9318 61.5677 26.149 61.7291 26.3669C62.4281 27.1825 63.773 28.1616 66.0859 28.1616C67.7529 28.2157 69.4202 27.7268 70.7651 26.8021C71.5182 27.5633 72.7548 28.2704 74.6377 28.2704C76.0361 28.2704 77.4347 27.8897 78.6714 27.2373C79.5859 27.8897 80.7691 28.2157 82.1678 28.2157C84.3727 28.2157 86.3628 27.4545 87.6536 26.095C88.7292 27.1825 90.612 28.2704 93.8391 28.2704C96.7975 28.2704 99.7556 26.3669 101.262 23.8107C102.445 21.9072 101.154 18.5354 97.3889 18.6986ZM56.1891 13.9128C56.1353 13.9128 56.1353 13.8585 56.0815 13.8585C56.0274 13.8041 55.9201 13.8041 55.8663 13.8041C55.705 13.8041 55.5436 13.8585 55.436 13.9672C55.3822 14.0213 55.3284 14.0213 55.2749 14.076C55.2208 14.1301 55.2208 14.1848 55.167 14.1848C54.898 14.5652 54.6828 14.946 54.5756 15.3812C54.5218 15.4352 54.5218 15.5444 54.4677 15.6528C54.3604 15.9248 54.3066 16.2512 54.1987 16.5235C54.1452 16.7407 54.0914 17.0123 54.0376 17.2303C53.93 17.9915 53.8224 18.8074 53.8224 19.623C53.8224 20.0037 53.8224 20.4389 53.8762 20.8197C53.8762 20.9281 53.8762 20.9828 53.93 21.0916C53.9838 21.3092 54.0376 21.5268 54.0914 21.7444C54.1452 21.8528 54.1987 21.9616 54.2528 22.0704C54.4139 22.3968 54.5756 22.56 54.7908 22.56C54.898 22.56 54.9518 22.56 55.0597 22.5056C55.167 22.4512 55.2749 22.3968 55.3822 22.288C55.705 21.9072 56.0274 21.2548 56.2967 20.3845C56.3505 20.1673 56.4043 19.9497 56.4578 19.7321L56.6195 18.9162C56.6729 18.5354 56.7267 18.1546 56.7267 17.7739C56.7805 17.3935 56.7805 17.0671 56.7805 16.6863C56.8347 15.9248 56.7267 15.1092 56.4578 14.3477C56.4578 14.2389 56.3505 14.0213 56.1891 13.9128ZM28.059 13.6953C27.1986 13.6953 26.6068 15.3812 26.2841 16.7407H26.7682C27.8438 16.7407 28.7045 16.0339 28.8121 15.1636V14.8372C28.8121 14.5652 28.7583 14.2933 28.5969 14.076C28.5431 13.8585 28.328 13.6953 28.059 13.6953ZM12.0309 7.9848H10.8477C10.7401 8.47436 10.6863 8.96357 10.6325 9.45312L9.77178 14.7284H11.2243C13.1064 14.7284 14.5051 13.1513 14.5051 10.7583C14.5051 9.07236 13.5368 7.9848 12.0309 7.9848ZM10.7401 4.93935C8.64241 4.9934 6.32952 5.21099 5.68431 5.37417C6.32952 5.21099 8.64241 4.9934 10.7401 4.93935Z" fill="black"/>
</svg>
