<svg width="113" height="33" viewBox="0 0 113 33" fill="none" xmlns="http://www.w3.org/2000/svg">
<path fill-rule="evenodd" clip-rule="evenodd" d="M109.775 11.6949H109.434V11.1962H109.775C109.923 11.1962 110.044 11.2866 110.044 11.4413C110.044 11.5813 109.946 11.6949 109.775 11.6949ZM110.03 12.0549C110.355 11.9955 110.561 11.7547 110.561 11.4214C110.561 10.9991 110.26 10.72 109.798 10.72H109.175C109.04 10.72 108.915 10.8121 108.915 10.9762V12.7237C108.915 12.9052 109.024 12.9975 109.175 12.9975C109.325 12.9975 109.434 12.9052 109.434 12.7237V12.0748H109.441L110.079 12.8712C110.144 12.9508 110.191 12.9975 110.325 12.9975C110.524 12.9975 110.59 12.833 110.59 12.7596C110.59 12.6744 110.553 12.6134 110.482 12.5383L110.03 12.0549ZM109.753 13.8451C108.704 13.8451 107.848 12.9988 107.848 11.9613C107.848 10.9253 108.704 10.0862 109.753 10.0862C110.802 10.0862 111.656 10.9253 111.656 11.9613C111.656 12.9988 110.802 13.8451 109.753 13.8451ZM109.753 9.47681C108.366 9.47681 107.239 10.5937 107.239 11.9613C107.239 13.3337 108.366 14.4476 109.753 14.4476C111.14 14.4476 112.266 13.3337 112.266 11.9613C112.266 10.5937 111.14 9.47681 109.753 9.47681ZM23.1787 8.795L13.0971 18.7631V18.7615C12.9107 18.9348 12.6183 18.9318 12.4361 18.7517H12.4348C9.79691 15.7995 9.90422 11.2882 12.76 8.46502C15.6017 5.65551 20.1322 5.5354 23.1199 8.10176C23.1357 8.11318 23.1514 8.12721 23.1672 8.14321C23.3493 8.32174 23.3536 8.61092 23.1787 8.795ZM21.0796 24.7229C18.2383 27.5321 13.7078 27.6538 10.7214 25.0871C10.7043 25.0744 10.6886 25.0604 10.6728 25.046C10.492 24.8662 10.4877 24.5773 10.6613 24.3926L20.7429 14.4261C20.9307 14.2531 21.2217 14.2577 21.4052 14.4359C24.0447 17.3884 23.9358 21.9 21.0796 24.7229ZM30.8531 0.523438H2.9869C1.7034 0.523438 0.664062 1.55122 0.664062 2.81988V30.3684C0.664062 31.6367 1.7034 32.6641 2.9869 32.6641H30.8531C32.1363 32.6641 33.1756 31.6367 33.1756 30.3684V2.81988C33.1756 1.55122 32.1363 0.523438 30.8531 0.523438ZM47.3847 15.0315C45.964 14.4783 45.0937 14.0987 45.0937 13.271C45.0937 12.6091 45.627 11.9417 46.8212 11.9417C47.5698 11.9417 48.2019 12.2661 48.6462 12.8797C48.9419 13.271 49.2829 13.4721 49.6586 13.4721C50.3711 13.4721 50.9733 12.8957 50.9733 12.2135C50.9733 11.9528 50.9031 11.7119 50.7699 11.5164C49.9842 10.3146 48.361 9.47681 46.8212 9.47681C44.7009 9.47681 42.5562 10.782 42.5562 13.271C42.5562 15.8338 44.6822 16.6527 46.387 17.3146C47.7532 17.8391 48.9347 18.2957 48.9347 19.4263C48.9347 20.2514 48.1533 21.0902 46.6607 21.0902C46.2049 21.0902 45.3503 20.9871 44.7868 20.3023C44.4859 19.958 44.1289 19.7654 43.7807 19.7654C43.0925 19.7654 42.4657 20.3647 42.4657 21.0194C42.4657 21.2818 42.549 21.5312 42.7138 21.7652C43.5053 22.9444 45.2988 23.558 46.6607 23.558C48.9947 23.558 51.4722 22.1095 51.4722 19.4263C51.4722 16.6246 49.2058 15.7427 47.3847 15.0315ZM101.434 19.0976C101.434 20.4443 100.557 21.0181 99.476 21.0181H99.4041C98.3234 21.0181 97.4445 20.4443 97.4445 19.0976V13.9342C97.4445 12.8712 98.3234 12.0125 99.4041 12.0125H99.476C100.557 12.0125 101.434 12.8712 101.434 13.9342V19.0976ZM99.476 9.47681H99.4041C96.9011 9.47681 94.888 11.4753 94.888 13.9342V19.0976C94.888 19.2465 94.8723 19.3966 94.888 19.5425V29.3605C94.888 30.0436 95.4519 30.5978 96.1486 30.5978C96.8437 30.5978 97.4071 30.0436 97.4071 29.3605V22.9356C97.8873 23.3553 98.686 23.5538 99.4041 23.5538H99.476C101.979 23.5538 103.887 21.4277 103.887 18.97V13.8109C103.887 11.349 101.979 9.47681 99.476 9.47681ZM91.0976 9.47681C90.4137 9.47681 89.866 10.0013 89.8344 10.6603H89.8259V19.1913C89.8259 20.2299 88.9628 21.0719 87.9005 21.0719H87.8273C86.762 21.0719 85.9006 20.2299 85.9006 19.1913V10.7425C85.9006 10.7354 85.9032 10.7256 85.9032 10.7184L85.9006 10.6916V10.6603H85.8976C85.8661 10.0013 85.3141 9.47681 84.6332 9.47681C83.9535 9.47681 83.4015 10.0013 83.37 10.6603H83.3615V19.1913C83.3615 21.5964 85.3643 23.558 87.8273 23.558H87.9005C90.3622 23.558 92.368 21.5964 92.368 19.1913V10.6603H92.3607C92.3289 10.0013 91.7786 9.47681 91.0976 9.47681ZM61.303 9.47681C60.6234 9.47681 60.0714 10.0013 60.0399 10.6603H60.0343V19.1913C60.0343 20.2299 59.1695 21.0719 58.1043 21.0719H58.0341C56.9717 21.0719 56.1073 20.2299 56.1073 19.1913V10.7425C56.1073 10.7354 56.1086 10.7256 56.1086 10.7184L56.1073 10.6916V10.6603H56.1044C56.0712 10.0013 55.5209 9.47681 54.8412 9.47681C54.1589 9.47681 53.6086 10.0013 53.5768 10.6603H53.5669V19.1913C53.5669 21.5964 55.5711 23.558 58.0341 23.558H58.1043C60.5689 23.558 62.5731 21.5964 62.5731 19.1913V10.6603H62.5675C62.536 10.0013 61.9853 9.47681 61.303 9.47681ZM76.1688 9.47681H76.0986C74.8597 9.47681 73.7416 9.98565 72.9372 10.7993C72.1342 9.98989 71.0191 9.4853 69.7818 9.4853H69.7129C67.2785 9.4853 65.2956 11.4413 65.2956 13.8481V22.3732H65.3029C65.3331 23.0319 65.8778 23.558 66.5516 23.558C67.2253 23.558 67.7701 23.0319 67.8003 22.3732H67.8075V13.8481C67.8075 12.8076 68.6604 11.9642 69.7129 11.9642H69.7818C70.8084 11.9642 71.6413 12.7635 71.6843 13.7671C71.6843 13.7926 71.6813 13.8151 71.6813 13.8406V22.3674H71.6869C71.6987 22.6154 71.7831 22.8452 71.9192 23.0319C72.1473 23.3495 72.5185 23.558 72.9428 23.558C73.6166 23.558 74.1613 23.0319 74.1932 22.3732H74.2004V13.8481C74.2004 13.8197 74.1988 13.7926 74.1974 13.7658C74.2375 12.7609 75.072 11.9573 76.0986 11.9573H76.1688C77.2226 11.9573 78.0739 12.8007 78.0739 13.8406V22.2838C78.0739 22.2923 78.0713 22.3008 78.0713 22.3093C78.0713 22.3194 78.0739 22.3275 78.0739 22.3364V22.3674H78.0785C78.1083 23.025 78.6518 23.5508 79.3272 23.5508C80.0009 23.5508 80.5444 23.025 80.5759 22.3674H80.5857V13.8406C80.5857 11.4341 78.6032 9.47681 76.1688 9.47681Z" fill="black"/>
</svg>
