<svg width="132" height="24" viewBox="0 0 132 24" fill="none" xmlns="http://www.w3.org/2000/svg">
<path fill-rule="evenodd" clip-rule="evenodd" d="M69.6942 12.4911V12.2056C69.6942 10.8883 70.3379 10.1711 71.5534 10.1711C71.9794 10.1711 72.7681 10.3174 73.3393 10.4565L73.9829 9.0001C73.1309 8.64149 72.197 8.49512 71.4894 8.49512C69.4952 8.49512 67.7086 9.5124 67.7086 12.2056V12.4911H66.3581V14.167H67.7V22.8322H69.6942V14.167H71.6891L72.4054 12.4911H69.6942ZM110.865 10.9615H108.653V8.84641H110.865V10.9615ZM110.72 22.8322H108.725V12.3447H110.72V22.8322ZM102.869 19.7072H102.796L100.23 12.3447H98.4444L95.5155 19.7072H95.443L93.4488 8.85373H91.3087L94.0199 22.8468H96.0141L99.2238 15.1184H99.2964L102.08 22.8468H104.074L107.502 8.85373H105.434L102.869 19.7072ZM72.2603 17.658C72.2603 14.5256 74.4729 12.1983 77.3284 12.1983C80.6107 12.1983 82.1789 14.5256 82.0431 17.5116V18.2434H75.9053L76.6215 16.6407H80.0482C79.9756 15.5502 79.4045 13.8011 77.2652 13.8011C75.406 13.8011 74.2638 15.5502 74.2638 17.5848C74.2638 19.773 75.6237 21.2953 77.5461 21.2953C78.7515 21.2953 79.7493 20.8635 80.5381 20.0585L81.7529 21.2221C80.8283 22.3931 79.1868 23.0517 77.401 23.0517C74.4003 23.0517 72.2603 20.9367 72.2603 17.658ZM48.5876 13.7206C49.1594 12.7033 50.3648 12.1983 51.7247 12.1983C54.1457 12.1983 55.7139 13.5815 55.7864 16.2821V22.8322H53.7922V16.6407C53.7922 14.6793 52.867 13.8743 51.2987 13.8743C49.658 13.8743 48.5876 15.1111 48.5876 17.153V22.8322H46.5934V12.3447H48.515V13.7206H48.5876ZM39.3766 12.1983C38.1618 12.1983 37.0914 12.3447 36.2394 12.7033L36.5928 14.3061C37.5907 14.0206 38.3794 13.8743 39.1589 13.8743C40.8722 13.8743 42.2235 14.6793 42.2235 16.3553V16.6407C41.6524 16.4211 40.8722 16.2089 39.5849 16.2089C36.8745 16.2089 35.0878 17.5848 35.0878 19.7803C35.0878 22.115 36.8745 23.1322 38.7961 23.1322C40.4369 23.1322 41.5798 22.4736 42.1509 21.7417H42.2235V22.9859H44.1451V16.4284C44.1545 13.4351 42.3047 12.1983 39.3766 12.1983ZM39.0957 21.3831C40.9448 21.3831 42.2321 20.3658 42.2321 18.8363H42.2414V18.3166C41.7429 17.958 40.8902 17.7311 39.5303 17.7311C38.0978 17.7311 37.1007 18.463 37.1007 19.634C37.1007 20.8708 38.0253 21.3831 39.0957 21.3831ZM17.5537 10.7419H22.0507V22.8322H24.1815V10.7419H28.6778V8.84641H17.5537V10.7419ZM30.6727 13.5083C31.2438 12.7033 32.3135 12.2715 33.4564 12.2715C33.8185 12.2715 34.5261 12.3447 35.233 12.4911L34.807 14.0938C34.7206 14.0811 34.6386 14.0685 34.559 14.0562L34.5588 14.0561L34.5586 14.0561C34.1792 13.9974 33.8559 13.9474 33.3839 13.9474C31.7424 13.9474 30.6727 14.8915 30.6727 17.0725V22.8322H28.6778V12.3447H30.6001V13.5083H30.6727ZM86.1048 13.5083H86.0322V12.3447H84.1099V22.8322H86.1048V17.0725C86.1048 14.8915 87.3196 13.9474 88.8878 13.9474C89.3605 13.9474 89.6839 13.9975 90.0635 14.0561C90.1431 14.0684 90.2252 14.0811 90.3116 14.0938L90.7376 12.4911C90.0939 12.2056 89.3871 12.2056 89.0243 12.2056C87.8907 12.2715 86.6759 12.7033 86.1048 13.5083ZM131.627 18.3166H125.489L126.06 16.6407H129.488C129.415 15.5502 128.844 13.8011 126.704 13.8011C124.855 13.8011 123.712 15.5502 123.712 17.5848C123.712 19.773 125.072 21.2953 126.994 21.2953C128.2 21.2953 129.197 20.8635 129.986 20.0585L131.201 21.2221C130.276 22.3931 128.636 23.0517 126.849 23.0517C123.848 23.0517 121.708 20.9367 121.708 17.658C121.708 14.5256 123.921 12.1983 126.776 12.1983C130.059 12.1983 131.627 14.5915 131.627 17.5848V18.3166ZM61.8524 16.7871C60.2835 16.5675 59.4221 16.2821 59.4221 15.2575C59.4221 14.3134 60.3467 13.8084 61.4171 13.8084C62.3416 13.8084 63.4838 14.167 64.2001 14.6793L65.1979 13.2888C64.2726 12.5569 62.8402 12.1983 61.4896 12.1983C59.1319 12.1983 57.4186 13.5815 57.4186 15.3965C57.4186 17.5116 58.7691 18.1703 61.0543 18.5289L61.2325 18.559C62.4452 18.7634 63.4838 18.9384 63.4838 19.9853C63.4838 20.9294 62.5593 21.3758 61.3445 21.3758C60.1297 21.3758 59.1319 21.0831 58.0623 20.278L57.2103 21.8076C57.999 22.4663 59.5673 23.0517 61.2806 23.0517C63.7108 23.0517 65.4148 21.6612 65.4148 19.773C65.4874 17.5189 63.6383 17.0139 61.8524 16.7871ZM114.637 15.2575C114.637 16.2821 115.498 16.5675 117.067 16.7871C118.925 17.0139 120.702 17.5189 120.629 19.773C120.629 21.6612 118.925 23.0517 116.495 23.0517C114.782 23.0517 113.213 22.4663 112.425 21.8076L113.277 20.278C114.346 21.0831 115.344 21.3758 116.559 21.3758C117.774 21.3758 118.698 20.9294 118.698 19.9853C118.698 18.9384 117.66 18.7634 116.447 18.559C116.388 18.5491 116.328 18.5391 116.269 18.5289C113.993 18.1703 112.633 17.5116 112.633 15.3965C112.633 13.5815 114.346 12.1983 116.704 12.1983C118.055 12.1983 119.487 12.5569 120.412 13.2888L119.414 14.6793C118.698 14.167 117.556 13.8084 116.632 13.8084C115.561 13.8084 114.637 14.3134 114.637 15.2575Z" fill="black"/>
<path d="M2.70326 0.869141L5.59544 5.76526L0.699707 10.6614H9.18589L10.1018 8.71464H5.242L8.13419 5.72867L6.36626 2.85247H14.3266L7.41797 19.5754H9.77496L17.5176 0.869141H2.70326Z" fill="black"/>
</svg>
