<svg width="93" height="28" viewBox="0 0 93 28" fill="none" xmlns="http://www.w3.org/2000/svg">
<path d="M0.500977 13.1758H3.18029L5.68242 23.2252H5.72419L8.2076 13.1758H10.8732L7.24319 27.2436H4.1447L0.500977 13.1758Z" fill="black"/>
<path fill-rule="evenodd" clip-rule="evenodd" d="M16.6418 12.981C14.0043 12.981 12.1504 14.229 12.1504 17.6991V22.7274C12.1504 26.1975 14.0043 27.4383 16.6418 27.4383C19.2837 27.4383 21.1383 26.1975 21.1383 22.7274V17.6991C21.1383 14.229 19.2837 12.981 16.6418 12.981ZM16.6418 25.0576C15.5564 25.0576 14.8715 24.632 14.8715 23.0737V17.3456C14.8715 15.7873 15.5608 15.3544 16.6418 15.3544C17.7272 15.3544 18.4172 15.7873 18.4172 17.3456V23.0737C18.4172 24.632 17.7272 25.0576 16.6418 25.0576Z" fill="black"/>
<path d="M23.3457 27.2436V13.1758H26.0675V24.8701H30.4423V27.2436H23.3457Z" fill="black"/>
<path fill-rule="evenodd" clip-rule="evenodd" d="M36.3513 12.981C33.7095 12.981 31.8599 14.229 31.8599 17.6991V22.7274C31.8599 26.1975 33.7095 27.4383 36.3513 27.4383C38.9932 27.4383 40.8435 26.1975 40.8435 22.7274V17.6991C40.8435 14.229 38.9932 12.981 36.3513 12.981ZM36.3564 25.0576C35.2702 25.0576 34.5809 24.632 34.5809 23.0737V17.3456C34.5809 15.7873 35.2702 15.3544 36.3564 15.3544C37.4418 15.3544 38.1318 15.7873 38.1318 17.3456V23.0737C38.1318 24.632 37.4418 25.0576 36.3564 25.0576Z" fill="black"/>
<path d="M51.2943 13.1758V15.5493H48.1209V27.2436H45.3998V15.5493H42.2314V13.1758H51.2943Z" fill="black"/>
<path d="M52.9111 27.2436V13.1758H60.3621V15.5493H55.6322V18.7885H59.2392V21.1619H55.6322V24.8701H60.558V27.2436H52.9111Z" fill="black"/>
<path d="M72.2121 27.2436H69.5277L67.0213 17.1869H66.9882L64.5004 27.2436H61.8398L65.4692 13.1758H68.559L72.2121 27.2436Z" fill="black"/>
<path d="M86.3392 16.4439L83.0168 19.7263L79.6899 16.4439L83.0168 13.1614L86.3392 16.4439Z" fill="black"/>
<path d="M86.3392 3.30665L83.0168 6.58913L79.6899 3.30665L83.0168 0.0241699L86.3392 3.30665Z" fill="black"/>
<path d="M92.984 9.87881L89.6623 13.1613L86.3354 9.87881L89.6623 6.58911L92.984 9.87881Z" fill="black"/>
<path d="M79.6904 9.87881L76.3729 13.1613L73.0454 9.87881L76.3729 6.58911L79.6904 9.87881Z" fill="black"/>
<path fill-rule="evenodd" clip-rule="evenodd" d="M79.3268 16.0832V10.2468L79.6948 9.87891L80.0629 10.2468V16.0832L79.6948 16.4511L79.3268 16.0832ZM77.8452 14.6187L78.5856 15.3473V10.9755L77.8452 11.7041V14.6187ZM77.1091 13.89V12.4255L76.373 13.1542L77.1091 13.89ZM82.2762 12.4327V13.89L83.0173 13.1542L82.2762 12.4327ZM81.5401 14.6187L80.799 15.3473V10.9755L81.5401 11.7041V14.6187Z" fill="black"/>
<path fill-rule="evenodd" clip-rule="evenodd" d="M85.9667 9.51089V3.67457L86.3347 3.30664L86.7027 3.67457V9.51089L86.3347 9.87882L85.9667 9.51089ZM84.4894 8.05361L85.2306 8.78225V4.39599L84.4894 5.13184V8.05361ZM83.7533 7.31776V5.8677L83.0122 6.59634L83.7533 7.31776ZM88.9204 5.8677V7.31776L89.6615 6.58912L88.9204 5.8677ZM88.1843 8.05361L87.4439 8.78225V4.39599L88.1843 5.13906V8.05361Z" fill="black"/>
<path fill-rule="evenodd" clip-rule="evenodd" d="M85.9667 16.0832V10.2468L86.3347 9.87891L86.7027 10.2468V16.0832L86.3347 16.4511L85.9667 16.0832ZM84.4894 14.6187L85.2306 15.3473V10.9755L84.4894 11.7041V14.6187ZM83.7533 13.89V12.4255L83.0122 13.1542L83.7533 13.89ZM88.9204 12.4327V13.89L89.6615 13.1542L88.9204 12.4327ZM88.1843 14.6187L87.4439 15.3473V10.9755L88.1843 11.7041V14.6187Z" fill="black"/>
<path fill-rule="evenodd" clip-rule="evenodd" d="M79.3268 9.51089V3.67457L79.6948 3.30664L80.0629 3.67457V9.51089L79.6948 9.87882L79.3268 9.51089ZM77.8452 8.05361L78.5856 8.78225V4.39599L77.8452 5.13184V8.05361ZM77.1091 7.31776V5.8677L76.373 6.59634L77.1091 7.31776ZM82.2762 5.8677V7.31776L83.0173 6.58912L82.2762 5.8677ZM81.5401 8.05361L80.799 8.78225V4.39599L81.5401 5.13906V8.05361Z" fill="black"/>
</svg>
