<svg width="127" height="21" viewBox="0 0 127 21" fill="none" xmlns="http://www.w3.org/2000/svg">
<path fill-rule="evenodd" clip-rule="evenodd" d="M95.9758 5.97638C96.6519 5.97638 97.4123 6.14132 98.0035 6.46403C99.7778 7.44651 100.792 9.23218 100.707 11.0178C100.792 11.9931 100.622 13.0545 100.285 14.0298C99.6935 15.8944 97.9193 17.1207 95.9758 17.1995H95.5531C92.5115 17.2784 90.6529 14.7613 91.3291 12.8107C91.6668 11.8354 92.5115 11.1828 93.5253 10.939C94.2857 10.774 95.1311 10.6951 95.8915 10.6951H97.0739H98.5105C98.6797 9.71983 98.257 8.74452 97.4966 8.17799C97.0739 7.8481 96.567 7.69033 95.9758 7.69033C95.3846 7.69033 94.8777 7.8481 94.455 8.17799C93.948 8.57958 93.6103 9.15329 93.5253 9.71983H91.5826C91.7511 7.52539 93.6946 5.8975 95.9758 5.97638ZM95.9758 15.5717C97.4123 15.4067 98.4262 14.2736 98.5947 12.9685C98.5947 12.8107 98.5947 12.7246 98.6797 12.5669H97.2431H95.9758C95.1311 12.4808 94.2857 12.7246 93.6103 13.2983C93.1034 13.9438 93.2719 14.7613 93.8638 15.2489C94.2857 15.5717 94.8777 15.6505 95.3846 15.6505C95.4687 15.6505 95.5741 15.6309 95.6796 15.6112C95.7853 15.5914 95.8911 15.5717 95.9758 15.5717Z" fill="black"/>
<path fill-rule="evenodd" clip-rule="evenodd" d="M111.017 7.76908C111.101 7.84796 111.186 7.93402 111.186 8.0129C111.201 8.05764 111.217 8.10171 111.232 8.14524C111.383 8.57622 111.516 8.95406 111.439 9.39697C111.608 10.1285 111.693 10.8599 111.693 11.6703C111.693 11.8316 111.672 11.9948 111.65 12.1579C111.629 12.3211 111.608 12.4842 111.608 12.6456V12.8105C111.566 12.9325 111.545 13.0741 111.524 13.2157C111.502 13.3574 111.481 13.499 111.439 13.6209C111.439 13.8368 111.364 14.0559 111.288 14.2739C111.251 14.3818 111.214 14.4894 111.186 14.5962C111.101 14.9189 110.932 15.2488 110.763 15.4926C110.636 15.6145 110.531 15.7365 110.425 15.8584C110.319 15.9803 110.214 16.1022 110.087 16.2241C110 16.281 109.912 16.3472 109.821 16.4161C109.649 16.5469 109.464 16.6873 109.242 16.7906C108.566 17.1205 107.722 17.2783 106.961 17.2783H106.877C106.454 17.2783 106.032 17.2783 105.61 17.1994C105.271 17.1994 104.933 17.1205 104.596 16.9556C104.004 16.7118 103.497 16.303 103.159 15.8153C102.99 15.5715 102.821 15.3277 102.736 15.005C102.652 14.6751 102.568 14.3524 102.483 14.0297C102.399 13.2982 102.314 12.4807 102.314 11.6703V2.31885H104.342V7.11648C104.402 7.00495 104.504 6.92926 104.588 6.86661C104.623 6.84063 104.655 6.81689 104.68 6.79377C104.849 6.62883 105.103 6.47106 105.356 6.385C105.401 6.36397 105.44 6.34294 105.476 6.3234C105.576 6.26966 105.654 6.22724 105.778 6.22724C105.863 6.22724 105.947 6.20568 106.032 6.18414C106.116 6.16265 106.201 6.14118 106.285 6.14118C106.538 6.06229 106.792 6.06229 107.045 6.06229H107.384C107.722 6.06229 108.144 6.06229 108.482 6.14118H108.651C108.818 6.14118 108.984 6.21241 109.151 6.28363C109.238 6.3208 109.325 6.35796 109.412 6.385C109.496 6.385 109.58 6.385 109.665 6.47106C109.707 6.51059 109.749 6.53031 109.792 6.55007C109.834 6.56975 109.876 6.58947 109.918 6.62883C110.256 6.87266 110.594 7.20254 110.847 7.52525C110.89 7.56485 110.911 7.60626 110.933 7.64767C110.954 7.68873 110.975 7.72979 111.017 7.76908ZM109.791 12.7675C109.812 12.6456 109.834 12.5237 109.834 12.4018C109.834 12.1579 109.834 11.9141 109.749 11.5914V10.695C109.749 10.3723 109.749 10.1285 109.665 9.88463C109.665 9.88463 109.749 9.79857 109.665 9.71968C109.617 9.6752 109.596 9.6558 109.587 9.63191C109.58 9.61343 109.58 9.59227 109.58 9.55474C109.496 9.23203 109.412 8.98821 109.242 8.74438C109.073 8.42167 108.735 8.17784 108.398 8.0129C108.355 8.0129 108.313 7.9931 108.27 7.97333C108.228 7.95366 108.186 7.93402 108.144 7.93402C108.045 7.93402 107.975 7.90454 107.917 7.88009C107.876 7.86276 107.841 7.84796 107.806 7.84796C107.552 7.76908 107.384 7.76908 107.13 7.76908H107.045C106.792 7.76908 106.538 7.76908 106.285 7.84796H106.201C106.128 7.84796 105.991 7.91235 105.846 7.9808C105.824 7.99148 105.801 8.00225 105.778 8.0129C105.694 8.0129 105.61 8.09179 105.61 8.09179C105.61 8.09179 105.61 8.17784 105.525 8.17784C105.486 8.21357 105.444 8.24966 105.4 8.28696C105.25 8.41436 105.083 8.55577 105.018 8.74438C104.978 8.82245 104.938 8.91819 104.898 9.01411C104.853 9.12085 104.809 9.22782 104.764 9.31092C104.68 9.47586 104.596 9.71968 104.596 9.96351V10.2073V10.4512C104.511 10.7739 104.511 11.1826 104.511 11.6703V12.5667V12.7245C104.511 12.8583 104.536 12.9921 104.559 13.1128C104.578 13.2121 104.596 13.3026 104.596 13.3771C104.638 13.499 104.659 13.6012 104.68 13.7034C104.701 13.8056 104.722 13.9078 104.764 14.0297C104.842 14.2545 104.92 14.4061 104.998 14.5577C105.004 14.5705 105.011 14.5833 105.018 14.5962C105.018 14.6751 105.103 14.7611 105.103 14.7611L105.187 14.84C105.356 15.0839 105.525 15.2488 105.778 15.3277C105.947 15.4066 106.201 15.4926 106.37 15.4926C106.623 15.5715 106.877 15.5715 107.13 15.5715H107.215C107.468 15.5715 107.722 15.5715 107.891 15.4926C107.933 15.4926 107.975 15.4712 108.017 15.4497C108.059 15.4282 108.102 15.4066 108.144 15.4066C108.228 15.4066 108.398 15.3277 108.482 15.2488C108.567 15.1663 108.651 15.1054 108.735 15.0444C108.82 14.9835 108.904 14.9225 108.989 14.84C109.031 14.7576 109.094 14.6769 109.158 14.5962C109.221 14.5155 109.284 14.4348 109.327 14.3524C109.368 14.2726 109.409 14.1744 109.449 14.0763C109.493 13.9717 109.537 13.8673 109.58 13.7858C109.665 13.6209 109.749 13.3771 109.749 13.1332C109.749 13.0113 109.77 12.8894 109.791 12.7675Z" fill="black"/>
<path fill-rule="evenodd" clip-rule="evenodd" d="M121.915 15.4927C123.267 15.7365 124.618 14.8401 124.872 13.5421H126.815C126.562 15.6505 124.703 17.2784 122.506 17.2784H121.83C119.042 17.1134 117.183 15.0051 117.099 12.158C117.014 8.82335 118.535 6.22014 121.83 5.97632H122.253C125.294 5.97632 127.153 8.42175 126.477 10.3724C126.139 11.3477 125.294 11.9931 124.28 12.2369C123.52 12.4019 122.76 12.4807 121.915 12.4807H120.732H119.295V12.6457C119.211 14.1086 120.394 15.4066 121.915 15.4927ZM120.648 8.25681C119.887 8.74446 119.465 9.47594 119.295 10.3724C119.295 10.5301 119.295 10.6162 119.211 10.9389H120.648H121.915C122.76 11.0178 123.604 10.774 124.28 10.2074C124.787 9.55482 124.618 8.74446 124.027 8.25681C123.604 7.9341 123.013 7.84804 122.506 7.84804H121.915C121.577 7.84804 121.239 7.9341 120.985 8.09187C120.943 8.09187 120.922 8.11329 120.901 8.13476C120.88 8.15632 120.859 8.17792 120.816 8.17792C120.774 8.17792 120.753 8.19764 120.732 8.21737C120.711 8.23709 120.69 8.25681 120.648 8.25681Z" fill="black"/>
<path d="M115.663 16.6329C115.663 16.5468 115.663 16.4679 115.579 16.303C115.579 16.1452 115.579 15.9014 115.579 15.6576V2.31885H113.551V15.6576C113.551 15.7365 113.551 15.9014 113.551 15.9803C113.551 16.0592 113.551 16.2241 113.551 16.303C113.551 16.4679 113.551 16.5468 113.635 16.7118V16.7906V16.8767V16.9556H115.748L115.663 16.7906C115.663 16.7906 115.663 16.7118 115.663 16.6329Z" fill="black"/>
<path fill-rule="evenodd" clip-rule="evenodd" d="M72.065 9.55492C72.1493 9.64097 72.1493 9.71986 72.1493 9.79874C72.2335 9.8848 72.2335 10.0426 72.065 10.1286C72.1493 10.6163 72.1493 11.1039 72.1493 11.5916V11.5916C72.1493 11.8033 72.1258 11.9952 72.1037 12.1765C72.0838 12.3391 72.065 12.4932 72.065 12.6458V12.8107C72.065 13.0545 72.065 13.3772 71.98 13.6211C71.8958 13.7 71.8958 13.786 71.8958 13.8649C71.8958 13.9043 71.8747 13.9456 71.8537 13.9868C71.8326 14.028 71.8115 14.0693 71.8115 14.1087C71.7266 14.5175 71.5581 14.9263 71.3046 15.3279C71.2629 15.3701 71.2417 15.4106 71.2209 15.4502C71.1993 15.4913 71.1783 15.5315 71.1354 15.5717C71.0944 15.6135 71.0734 15.6537 71.0528 15.693C71.031 15.7345 71.0098 15.775 70.9662 15.8155C70.6285 16.1454 70.2907 16.3892 69.8681 16.633C69.5307 16.8766 69.1926 16.9556 68.8552 17.0344L68.8542 17.0346C68.4315 17.1207 68.0095 17.1207 67.5868 17.1207C67.1642 17.1996 66.7422 17.1207 66.3195 17.0346C66.2717 16.9899 66.251 16.9705 66.2266 16.9622C66.2079 16.9558 66.1871 16.9558 66.1503 16.9558C66.1104 16.9433 66.0685 16.9308 66.0251 16.9177C65.7927 16.848 65.5192 16.766 65.3056 16.633C65.2617 16.5882 65.2175 16.5667 65.1734 16.5452C65.1329 16.5255 65.0925 16.5058 65.0522 16.4681C65.0119 16.4304 64.9714 16.4107 64.9309 16.391C64.8868 16.3695 64.8426 16.3481 64.7987 16.3032C64.461 16.0593 64.1225 15.7366 63.8691 15.3279L63.8665 15.3241C63.6988 15.0815 63.5309 14.8385 63.4471 14.5175C63.3977 14.3299 63.3486 14.1399 63.2995 13.9503C63.2642 13.8137 63.2289 13.6773 63.1936 13.5422C63.1087 13.4561 63.1087 13.3772 63.1087 13.2984V12.9685C63.0244 12.4808 63.0244 11.9932 63.0244 11.5055C63.0244 11.2938 63.0478 11.1019 63.07 10.9206C63.0898 10.758 63.1087 10.6039 63.1087 10.4513V10.2864C63.1087 10.0426 63.1087 9.71986 63.1936 9.47603C63.2779 9.39715 63.2779 9.31109 63.2779 9.23221C63.2779 9.19276 63.2989 9.15153 63.32 9.11029C63.3411 9.06906 63.3621 9.02782 63.3621 8.98838C63.5314 8.57961 63.7006 8.17802 63.954 7.76925C64.1225 7.52542 64.2918 7.2816 64.5452 7.03777C64.7362 6.85405 64.975 6.71511 65.1896 6.59029C65.2598 6.54945 65.3274 6.51012 65.3899 6.47123C65.4748 6.38518 65.5591 6.30629 65.6433 6.30629C65.6859 6.30629 65.7283 6.28649 65.7706 6.26672C65.8127 6.24705 65.8548 6.22741 65.8968 6.22741C66.4887 6.06247 67.0799 5.98358 67.6711 5.98358C68.0772 5.90091 68.4833 5.97709 68.8887 6.05315C68.9053 6.05626 68.9219 6.05937 68.9384 6.06247C69.2769 6.14135 69.6146 6.30629 69.9523 6.47123C70.5442 6.79395 71.0511 7.20271 71.3889 7.76925C71.4731 7.84813 71.5581 7.93419 71.5581 8.01308C71.5581 8.05252 71.5791 8.09375 71.6002 8.13499C71.6213 8.17622 71.6423 8.21746 71.6423 8.2569L71.6517 8.27961C71.8178 8.68058 71.9816 9.0763 72.065 9.55492ZM70.2483 12.8896C70.2695 12.7462 70.2907 12.6027 70.2907 12.4808C70.2907 12.237 70.2907 11.9143 70.2058 11.5055V10.6163C70.2058 10.4389 70.1814 10.2864 70.1589 10.1454C70.1395 10.0242 70.1215 9.91146 70.1215 9.79874V9.64097V9.47603C70.1058 9.43059 70.0901 9.38242 70.0738 9.33252C70.0027 9.11467 69.9209 8.86406 69.7838 8.66567C69.702 8.50686 69.6209 8.42783 69.4639 8.27495C69.4578 8.26905 69.4517 8.26303 69.4454 8.2569C69.3613 8.0924 69.1928 8.0135 69.0247 7.93482L69.0234 7.93419C68.9873 7.93419 68.9665 7.93419 68.9482 7.9276C68.9232 7.91867 68.9026 7.89764 68.8542 7.84813C68.8064 7.8034 68.7857 7.78403 68.7613 7.77565C68.7426 7.76925 68.7217 7.76925 68.685 7.76925C68.3472 7.60431 68.0095 7.60431 67.6711 7.60431C67.4176 7.60431 67.1642 7.60431 66.9107 7.69036C66.9107 7.76925 66.8264 7.76925 66.7422 7.76925C66.7011 7.8074 66.6405 7.8271 66.5792 7.84701C66.5138 7.86826 66.4476 7.88975 66.4037 7.93419C66.3195 7.97363 66.2561 8.03459 66.1928 8.09555C66.1294 8.1565 66.066 8.21746 65.9818 8.2569C65.8135 8.33535 65.7292 8.4989 65.6448 8.66293L65.6433 8.66567C65.5998 8.74713 65.5563 8.85153 65.5127 8.95617C65.4719 9.0542 65.431 9.15243 65.3899 9.23221C65.3056 9.39715 65.2214 9.64097 65.2214 9.8848C65.2214 10.0067 65.2001 10.1483 65.1789 10.29C65.1577 10.4316 65.1364 10.5732 65.1364 10.6952V11.5916V12.4808C65.1364 12.6582 65.161 12.8107 65.1837 12.9517C65.2032 13.0729 65.2214 13.1856 65.2214 13.2984C65.2635 13.4203 65.2846 13.5207 65.3056 13.6211C65.3267 13.7215 65.3478 13.8219 65.3899 13.9438C65.4687 14.1766 65.5469 14.3292 65.625 14.4817C65.6311 14.4936 65.6372 14.5055 65.6433 14.5175C65.7252 14.6763 65.8063 14.7553 65.9633 14.9082C65.9693 14.9141 65.9755 14.9201 65.9818 14.9263C66.066 15.084 66.2353 15.1701 66.4037 15.249C66.573 15.3279 66.8264 15.4139 66.9957 15.4139C67.2491 15.4928 67.5026 15.4928 67.7561 15.4928C68.0095 15.4928 68.263 15.4928 68.5165 15.4139H68.6007C68.6736 15.4139 68.8101 15.3495 68.9551 15.2811C68.9777 15.2704 69.0006 15.2596 69.0234 15.249C69.1076 15.2095 69.171 15.1486 69.2344 15.0876C69.2977 15.0267 69.3611 14.9657 69.4454 14.9263C69.6146 14.8402 69.6988 14.6824 69.7838 14.5175C69.7838 14.4789 69.804 14.4592 69.8246 14.4391C69.8461 14.418 69.8681 14.3965 69.8681 14.3526C69.8681 14.3131 69.8891 14.2934 69.9102 14.2737C69.9312 14.2539 69.9523 14.2342 69.9523 14.1948C70.1215 13.9438 70.2058 13.6211 70.2058 13.2984C70.2058 13.1764 70.227 13.033 70.2483 12.8896Z" fill="black"/>
<path d="M60.4914 6.30615H60.4072L60.3229 6.38504L57.7882 14.5962L55.7605 6.38504V6.30615H55.5913H53.9013H53.817V6.38504L51.7893 14.5962L49.1703 6.38504V6.30615H49.0854H47.2268H47.0576V6.38504L50.6911 16.8767V16.9556H50.7754H52.6339H52.7189V16.8767L54.8309 9.7986L56.7744 16.8767L56.8586 16.9556H56.9429H58.8021H58.8864V16.8767L62.5192 6.38504V6.30615H62.3507H60.4914Z" fill="black"/>
<path d="M79.0782 6.22729H78.9089H78.8247H78.6555H78.5712C77.98 6.22729 77.3881 6.30618 76.7969 6.38506C76.7127 6.38506 76.6277 6.47112 76.5435 6.47112H76.4592C76.3743 6.47112 76.29 6.55001 76.29 6.55001C75.8673 6.71495 75.5296 6.95877 75.1919 7.2026C75.1069 7.28148 75.1069 7.28148 75.0227 7.36037C74.9384 7.44642 74.9384 7.44643 74.8534 7.52531C74.6849 7.69025 74.5157 7.93408 74.4315 8.1779C74.3465 8.42173 74.2623 8.66556 74.178 8.90938C74.093 9.06715 74.093 9.31098 74.093 9.47592V9.5548C74.093 9.79863 74.0088 10.0425 74.0088 10.2863V16.9556H76.0365V10.3723C76.0365 10.2863 76.0365 10.1285 76.0365 10.0425C76.0365 9.96357 76.1208 9.79863 76.1208 9.64086C76.2058 9.47592 76.2058 9.23209 76.3743 9.06715L76.4592 8.98827L76.5435 8.90938C76.7127 8.74444 76.8812 8.5795 77.0504 8.42173C77.0504 8.42173 77.1347 8.33567 77.2196 8.33567C77.3039 8.33567 77.3039 8.25679 77.3881 8.25679C77.8108 8.09185 78.2335 8.01296 78.7404 8.01296H78.6555H78.7404H78.8247H78.9089C78.9939 8.01296 79.1624 8.01296 79.2474 8.01296C79.3316 8.01296 79.3316 8.01296 79.4159 8.01296C79.5008 8.01296 79.5008 8.01296 79.5851 8.01296H79.6693V6.30618H79.5851C79.4159 6.22729 79.2474 6.22729 79.0782 6.22729Z" fill="black"/>
<path d="M86.8505 11.2616L90.3148 6.38503L90.3991 6.22726H90.2306H88.0336H87.9494V6.30615L82.9643 13.542V2.31888V2.23999H82.88H81.1057H80.9365V2.31888V16.7907V16.9556H81.1057H82.88H82.9643V16.8767L85.6682 13.0544L88.2871 16.8767L88.3713 16.9556H90.5683H90.7375L90.6526 16.7118L86.8505 11.2616Z" fill="black"/>
<path d="M24.7517 11.2616C25.8506 9.55482 26.526 7.69027 26.611 5.73249C26.611 4.19065 25.9348 2.64881 24.7517 1.6735C21.3724 -1.00858 14.7822 0.454373 14.9514 5.81855C14.9514 7.84804 16.0495 10.5301 18.6685 13.6999C19.4289 13.0544 20.105 12.158 20.5277 11.2616C13.3456 1.91733 28.3003 1.42968 20.8654 11.7493C20.3585 12.5668 19.6823 13.3772 18.9219 14.0297C16.5565 16.1381 14.5287 16.7907 12.6702 16.5469C6.24854 15.4927 5.23467 6.3062 4.72773 0.855969H0.0810547C0.0810547 0.942025 0.0810547 0.942025 0.0810547 1.02091V2.0751C0.334523 12.8895 8.27628 27.9278 20.9497 16.0592C21.6258 15.4066 22.302 14.6752 22.8932 13.8648C23.5693 13.0544 24.1605 12.158 24.7517 11.2616Z" fill="black"/>
<path d="M35.4827 6.55012C34.6373 12.8896 30.8353 18.2538 25.0905 15.3279C25.0056 15.4928 24.8371 15.6577 24.7521 15.7366C24.2452 16.3892 23.5697 16.9558 22.8936 17.4434C22.8936 17.4434 22.8936 17.4434 22.8086 17.4434C23.4005 17.7661 24.0767 18.096 24.6678 18.3398C31.7649 21.0219 38.2709 14.4314 38.8621 6.3063L35.4827 6.14136C35.567 6.3063 35.567 6.38518 35.4827 6.55012Z" fill="black"/>
</svg>
