<svg width="27" height="34" viewBox="0 0 27 34" fill="none" xmlns="http://www.w3.org/2000/svg">
<path fill-rule="evenodd" clip-rule="evenodd" d="M0 13.1562C0 20.4084 5.97556 26.3123 13.3158 26.3123C20.656 26.3123 26.6315 20.4084 26.6315 13.1562C26.6315 5.90394 20.656 0 13.3158 0C5.97556 0 0 5.90394 0 13.1562ZM2.11899 13.1562C2.11899 7.05123 7.13677 2.0936 13.3158 2.0936C19.4863 2.0936 24.5125 7.05961 24.5125 13.1562C24.5125 19.2527 19.4863 24.2187 13.3158 24.2187C7.14525 24.2187 2.11899 19.2611 2.11899 13.1562Z" fill="#003097"/>
<path d="M7.89046 18.5325L5.89013 17.5862L5.91555 17.2429L8.41597 17.2764C8.41597 17.2764 9.64498 15.5931 10.2976 14.7724C10.9503 13.9601 11.7979 12.9636 11.7979 12.9636L4.89844 9.95715L5.32224 9.53843L14.061 10.7025C14.061 10.7025 16.5868 8.10641 17.4853 7.35272C17.8497 7.05124 19.1381 6.23892 19.6805 6.76651L19.7399 6.82513C20.2823 7.35271 19.4602 8.634 19.1635 8.99409C18.4091 9.89015 15.7985 12.4108 15.7985 12.4108L17.0445 21.0365L16.6207 21.4552L13.527 14.6552C13.527 14.6552 12.5268 15.501 11.7131 16.1542C10.891 16.8074 9.19576 18.0384 9.19576 18.0384L9.24661 20.5089L8.8991 20.534L7.92436 18.566L7.89046 18.5325Z" fill="#003097"/>
<path d="M13.3161 33.9999C11.9854 33.9999 10.6462 33.8743 9.31544 33.6147C8.73907 33.5058 8.36613 32.9531 8.47632 32.392C8.5865 31.8226 9.14592 31.4541 9.71381 31.563C12.104 32.0236 14.5197 32.0236 16.9099 31.563C17.4863 31.4541 18.0372 31.8226 18.1474 32.392C18.2576 32.9615 17.8847 33.5058 17.3083 33.6147C15.986 33.8743 14.6468 33.9999 13.3161 33.9999Z" fill="#003097"/>
<path d="M13.3161 30.1563C11.5023 30.1563 9.6969 29.8715 7.95932 29.3104C7.40839 29.1262 7.10325 28.54 7.28125 27.9873C7.46772 27.443 8.06104 27.1415 8.62045 27.3173C11.6633 28.3055 14.9605 28.3055 18.0034 27.3173C18.5628 27.1415 19.1561 27.4346 19.3426 27.9873C19.529 28.5316 19.2239 29.1262 18.6645 29.3104C16.9354 29.8715 15.13 30.1563 13.3161 30.1563Z" fill="#003097"/>
</svg>
